<svg version="1.1" xmlns="http://www.w3.org/2000/svg" xmlns:xlink="http://www.w3.org/1999/xlink" width="64.3557" height="91" viewBox="0,0,64.3557,91"><g transform="translate(-207.82215,-134.5)"><g data-paper-data="{&quot;isPaintingLayer&quot;:true}" fill-rule="nonzero" stroke-linecap="butt" stroke-linejoin="miter" stroke-miterlimit="10" stroke-dasharray="" stroke-dashoffset="0" style="mix-blend-mode: normal"><path d="M208.82215,224.5v-89h62.3557v89z" fill="#d4bfff" stroke="#c700fc" stroke-width="2"/><path d="M220.43011,214.13352v-68.26705h39.13977v68.26705z" fill="none" stroke="#6d20e3" stroke-width="2.5"/><path d="M251.19128,187.83459c-1.37076,3.79825 -5.09686,6.1069 -11.07221,6.86231c-0.27161,0.03395 -0.53897,0.05517 -0.80633,0.06366c-0.348,0.50926 -0.80209,0.95062 -1.33681,1.29437c-1.40047,0.89545 -2.71182,1.33257 -4.0062,1.33257c-2.66089,0 -5.52549,-1.98612 -5.52549,-6.3488c0,-0.29707 0.01273,-0.68326 0.04244,-1.21799c0.01273,-0.22917 0.02546,-0.40741 0.02971,-0.53897c-0.07215,-0.33102 -0.11034,-0.66628 -0.11034,-1.00579v-2.05402c0,-0.33526 0.03395,-0.67053 0.10185,-1.00579c0.00424,-0.28434 0.01698,-0.60263 0.03819,-0.95062c-0.10185,-0.37346 -0.17824,-0.80633 -0.17824,-1.29013c0,-0.22068 0.01698,-0.44136 0.04668,-0.6578c0.16127,-1.13735 0.66628,-2.27895 1.5193,-3.19138c-0.29283,-0.81906 -0.4456,-1.68481 -0.4456,-2.57177v-2.16436c0,-0.87848 0.174,-1.97339 1.02701,-4.69794c0.35648,-1.1713 0.47107,-1.53627 0.62809,-1.87578c0.83604,-1.87578 2.09646,-2.81367 3.01313,-3.27625c1.49808,-0.74692 3.1065,-1.12886 4.77858,-1.12886c0.77238,0 1.51081,0.08063 2.21529,0.23341c0.31404,-0.21219 0.64931,-0.39043 1.00579,-0.53897c0.45409,-0.19522 0.93789,-0.33102 1.47262,-0.4159c1.33681,-0.22917 2.75002,0.05517 3.98073,0.80209c1.29437,0.78936 2.77972,2.42748 2.59724,5.7971c-0.02971,0.59414 -0.08063,1.38774 -0.15702,2.42324c-0.00424,0.02546 -0.00424,0.05093 -0.00849,0.07639c-0.0679,0.75116 -0.16551,1.87154 -0.29707,3.35264c0.03395,0.57292 0.02122,1.21374 -0.02971,1.96915c-0.02122,0.28858 -0.0679,0.57716 -0.14429,0.85726c-0.01698,0.06366 -0.03395,0.12307 -0.05093,0.17824c0.57292,0.73419 0.96335,1.46837 1.23072,2.10495c0.25039,0.50502 0.46258,1.08643 0.64931,1.79515c0.07215,0.26736 0.11883,0.53897 0.14005,0.81482c0.19097,2.3808 0.09336,3.78551 -0.348,4.97379z" fill="#edc300" stroke="none" stroke-width="1"/><path d="M249.39596,184.77105c0.16227,1.81251 0.12904,2.98064 -0.09747,3.5069c-0.94261,2.39657 -4.1094,3.9011 -9.49924,4.51507c-1.81932,0.20482 -3.63754,-0.56962 -5.45686,-2.32332c0,0.26313 0.0648,1.05202 0.1955,2.36767c0.09747,0.96431 0.08086,1.7532 -0.04874,2.36667c-0.81246,0.46745 -1.46155,0.70168 -1.94892,0.70168c-0.74767,0 -1.12039,-0.65733 -1.12039,-1.97298c0,-0.23373 0.01606,-0.606 0.04874,-1.11731c0.03212,-0.51081 0.04874,-0.86913 0.04874,-1.07395c0,-0.49686 -0.04874,-0.8472 -0.14621,-1.05202v-2.41103c0,-0.05831 0.01606,-0.12409 0.04874,-0.19735c0.03212,-0.07276 0.0648,-0.13854 0.09747,-0.19735c-0.03268,-0.40865 -0.01661,-1.03707 0.04874,-1.88477c0.0648,-0.52626 0.0648,-0.86165 0,-1.00817c-0.16283,-0.29154 -0.24313,-0.46696 -0.24313,-0.52576c0.12904,-0.81829 0.79585,-1.22744 1.9971,-1.22744c0.77923,0 1.24999,0.24868 1.41281,0.74504c0,0.46745 0.0648,1.15468 0.19495,2.06019c0.1955,1.05202 0.81191,2.10454 1.85144,3.15606c1.13645,1.19854 2.22417,1.7537 3.26426,1.66599c1.16913,-0.11612 2.33826,-0.36479 3.50739,-0.74504c1.62382,-0.52626 2.598,-1.13973 2.9231,-1.84091c0.22652,-0.52626 0.3406,-1.08093 0.3406,-1.66599c0,-1.78211 -0.7305,-3.11221 -2.19205,-3.98881c-0.65019,-0.37974 -1.85144,-0.68673 -3.60541,-0.92095c-1.00686,-0.11612 -1.62437,-0.17542 -1.85089,-0.17542c-1.55902,0.0294 -3.01282,-0.4236 -4.36028,-1.35901c-1.34802,-0.93491 -2.02147,-2.01683 -2.02147,-3.24427v-2.54209c0,-0.55467 0.35722,-1.85536 1.07221,-3.9011c0.32399,-0.96481 0.50287,-1.47562 0.5361,-1.53443c0.29187,-0.61347 0.66515,-1.02262 1.11984,-1.22744c1.10378,-0.49636 2.27291,-0.74504 3.50739,-0.74504c2.40306,0 4.17309,0.8766 5.31009,2.6298c0.09747,0.08771 0.25974,0.21927 0.48737,0.39469c0.03212,-0.40865 0.09747,-1.03707 0.19495,-1.88477c-0.03268,-0.37974 -0.06535,-0.74504 -0.09747,-1.09588c0,-0.40865 0.22652,-0.68623 0.68176,-0.83275c0.1296,-0.05831 0.30848,-0.10216 0.5361,-0.13156c0.32454,-0.05831 0.67401,0.01495 1.04784,0.21878c0.37273,0.20482 0.52724,0.81879 0.46245,1.84091c-0.03268,0.64287 -0.09747,1.54888 -0.19495,2.71751c-0.09747,0.96481 -0.24313,2.44043 -0.43863,4.42786c0.0648,0.46745 0.0648,1.11083 0,1.92862c-0.16283,0.55516 -0.65019,0.83275 -1.46155,0.83275c-0.42257,0 -0.82797,-0.10216 -1.21787,-0.30649c-0.19495,-0.55467 -0.29187,-0.78939 -0.29187,-0.70168c0.06424,-0.78889 -0.11409,-1.84091 -0.5361,-3.15606c-0.35777,-0.67178 -0.85234,-1.62861 -1.48592,-2.87101c-0.63358,-1.24189 -1.46986,-1.90719 -2.50884,-1.9949c-1.29928,-0.08771 -2.14331,0.30698 -2.53321,1.18359c-0.1296,0.38024 -0.30904,0.9359 -0.53555,1.66599c-0.38989,1.08142 -0.63358,2.11899 -0.73105,3.11221c-0.03268,0.32194 -0.06535,0.4535 -0.09747,0.39469c0.09747,0.58507 0.21101,1.16913 0.34116,1.7537c0.16227,0.73058 0.56047,1.28625 1.1935,1.66549c0.63358,0.38024 1.84258,0.61347 3.62923,0.70118c4.3841,0.23472 7.09563,1.60818 8.13517,4.12087c0.16172,0.23423 0.32399,0.62842 0.48681,1.18309z" fill="#ffffff" stroke="none" stroke-width="1"/></g></g></svg>