<svg version="1.1" xmlns="http://www.w3.org/2000/svg" xmlns:xlink="http://www.w3.org/1999/xlink" width="65.3557" height="92" viewBox="0,0,65.3557,92"><g transform="translate(-207.32215,-134)"><g data-paper-data="{&quot;isPaintingLayer&quot;:true}" stroke-miterlimit="10" stroke-dasharray="" stroke-dashoffset="0" style="mix-blend-mode: normal"><path d="M208.82215,224.5v-89h62.3557v89z" fill="#d4bfff" fill-rule="nonzero" stroke="#ffffff" stroke-width="3" stroke-linecap="butt" stroke-linejoin="miter"/><g fill-rule="evenodd"><g><path d="M231.04083,195.43525c0.48333,0.24167 1.51042,0.78542 0.06042,2.83959c-1.45,2.05417 -5.61877,2.47709 -6.1021,2.47709c-1.87292,0.06042 -4.16876,0.06042 -6.70627,-0.78542c-7.37086,-2.41667 -7.43127,-10.33128 -5.07502,-11.60004c2.29584,-1.26875 3.32293,3.62501 6.64585,6.58544c1.45,1.32917 3.20209,1.81251 4.6521,2.11459c2.05417,0.3625 5.98127,-1.93334 6.52502,-1.63126z" fill="#ffab19" stroke="#001026" stroke-width="1.2" stroke-linecap="round" stroke-linejoin="round"/><path d="M216.05745,190.54148c0.96667,1.63126 2.83959,3.9271 2.83959,3.9271c0,0 -2.23542,-0.54375 -3.50418,0.48333c-1.02709,0.78542 -0.78542,2.11459 -0.66459,2.53751c-0.78542,-0.78542 -1.75209,-1.87292 -2.35626,-3.98751c-0.60417,-2.11459 0,-4.6521 1.20834,-5.0146c1.20834,-0.24167 1.51042,0.66459 2.47709,2.05417z" fill="#ffffff" stroke="none" stroke-width="1" stroke-linecap="butt" stroke-linejoin="miter"/></g><path d="M234.06167,201.7186c-1.0875,0.725 -4.83335,3.38334 -9.60628,4.89377l-0.24167,0.06042c-0.24167,0.06042 -0.3625,0.3625 -0.24167,0.60417c1.02709,1.45 2.90001,4.35001 -0.42292,5.3771c-3.20209,1.02709 -9.18336,-7.49169 -6.64585,-9.72711c1.14792,-0.84584 2.17501,-0.42292 2.71876,-0.18125c0.30208,0.12083 0.60417,0.12083 0.90625,0.06042c0.725,-0.24167 2.05417,-0.725 3.08126,-1.26875c2.59792,-1.32917 3.20209,-1.87292 4.41043,-2.77918c1.20834,-0.90625 3.98751,-3.14168 6.22294,-1.20834c1.93334,1.63126 0.84584,3.44376 -0.18125,4.16876z" fill="#ffab19" stroke="#001026" stroke-width="1.2" stroke-linecap="round" stroke-linejoin="round"/><path d="M243.66796,189.1519c0.30208,0.24167 3.98751,4.59168 5.19585,3.50418c1.45,-1.26875 3.44376,-3.74585 5.61877,-1.75209c2.17501,1.99376 -1.93334,5.3771 -3.68543,6.28335c-4.16876,1.87292 -7.55211,-1.69167 -8.27711,-2.65834c-0.725,-0.96667 -1.99376,-2.59792 -1.99376,-4.16876c0.06042,-1.69167 2.11459,-2.11459 3.14168,-1.20834z" fill="#ffab19" stroke="#001026" stroke-width="1.2" stroke-linecap="round" stroke-linejoin="round"/><g><path d="M243.72837,203.22903c1.26875,1.14792 4.04793,3.50418 4.04793,3.50418c0,0 8.63961,-1.51042 8.63961,2.83959c0,2.59792 -4.35001,3.20209 -10.21045,2.65834c-0.3625,-0.06042 -0.725,-0.18125 -1.02709,-0.42292c-1.32917,-1.14792 -5.13543,-4.53126 -7.55211,-6.88752c-3.56459,-3.50418 -6.52502,-5.80002 -6.52502,-5.80002c-5.13543,-5.0146 -0.96667,-7.12919 0.66459,-10.0292c1.51042,-2.47709 2.17501,-1.99376 5.80002,-1.26875c2.05417,0.30208 3.26251,0.48333 4.59168,0.42292c1.99376,-0.06042 1.63126,2.83959 1.0875,4.35001c0,0 -0.84584,2.23542 -1.63126,3.38334c-0.96667,1.38959 -1.69167,2.29584 -2.41667,2.83959z" fill="#ffab19" stroke="#001026" stroke-width="1.2" stroke-linecap="round" stroke-linejoin="round"/><path d="M238.65336,198.75818c0,0 -0.90625,-0.725 -1.87292,-1.63126c-1.20834,-1.0875 -2.41667,-1.99376 -1.20834,-3.86668c1.0875,-1.45 2.11459,-3.38334 4.83335,-1.63126c2.59792,1.63126 1.45,3.14168 1.45,3.14168c-1.32917,2.71876 -3.20209,3.98751 -3.20209,3.98751z" fill="#ffffff" stroke="none" stroke-width="1" stroke-linecap="butt" stroke-linejoin="miter"/></g><path d="M229.53041,193.804c1.32917,1.69167 3.38334,3.80626 0.78542,5.55835c-3.56459,1.99376 -6.52502,-4.04793 -7.12919,-6.16252c-0.54375,-1.87292 1.02709,-3.08126 2.35626,-4.10835c2.59792,-1.87292 4.77293,-3.56459 7.18961,-2.65834c3.02084,1.0875 0.84584,3.50418 -0.66459,4.59168c-0.90625,0.66459 -1.81251,1.38959 -2.47709,1.81251c-0.18125,0.30208 -0.24167,0.66459 -0.06042,0.96667z" fill="#ffab19" stroke="#001026" stroke-width="1.2" stroke-linecap="round" stroke-linejoin="round"/><g><path d="M248.56172,153.08303c0.18125,-0.12083 0.48333,-0.06042 0.54375,0.18125l1.57084,6.4646c0,0 3.86668,2.83959 5.0146,4.83335c1.93334,3.32293 1.99376,6.04169 1.99376,6.04169c0,0 4.2896,1.26875 5.0146,4.71252c0.725,3.44376 -1.93334,9.96878 -13.29171,12.20421c-11.35837,2.23542 -20.48132,-0.84584 -24.77091,-7.73336c-4.2896,-6.88752 2.47709,-15.10421 2.11459,-14.62088l-1.26875,-10.81462c-0.06042,-0.24167 0.24167,-0.42292 0.48333,-0.30208l7.31044,4.77293c0,0 2.71876,-1.02709 5.55835,-1.14792c1.69167,-0.12083 3.14168,0 4.53126,0.24167z" fill="#ffab19" stroke="#001026" stroke-width="1.2" stroke-linecap="butt" stroke-linejoin="miter"/><path d="M257.50342,170.84559c0,0 4.16876,1.0875 4.89377,4.53126c0.725,3.44376 -2.17501,9.6667 -13.41254,11.8417c-14.62088,3.02084 -21.56882,-5.67918 -17.52089,-12.08337c4.04793,-6.4646 10.99587,-0.96667 16.07088,-1.32917c4.35001,-0.30208 4.83335,-4.10835 9.96878,-2.96043z" fill="#ffffff" stroke="none" stroke-width="1" stroke-linecap="butt" stroke-linejoin="miter"/><path d="M238.47211,177.31019c0,-0.24167 0.24167,-0.42292 0.48333,-0.3625c1.14792,0.42292 4.41043,1.38959 8.03544,1.63126c3.26251,0.18125 5.19585,0 6.1021,-0.18125c0.30208,-0.06042 0.54375,0.24167 0.42292,0.54375c-0.54375,1.63126 -2.83959,6.16252 -9.18336,5.80002c-5.49793,-0.60417 -6.04169,-4.47085 -5.86044,-7.43127z" fill="#ffffff" stroke="#001026" stroke-width="1.2" stroke-linecap="round" stroke-linejoin="round"/><path d="M268.62012,171.51017c-2.83959,2.29584 -7.18961,2.35626 -7.18961,2.35626" fill="none" stroke="#001026" stroke-width="1.2" stroke-linecap="round" stroke-linejoin="round"/><path d="M267.8347,178.27686c-3.80626,0.30208 -6.16252,-0.84584 -6.16252,-0.84584" fill="none" stroke="#001026" stroke-width="1.2" stroke-linecap="round" stroke-linejoin="round"/><path d="M247.29297,172.23518c1.26875,0 2.59792,0.12083 2.65834,0.54375c0.06042,0.84584 -0.84584,2.53751 -1.81251,2.59792c-1.0875,0.12083 -3.62501,-1.38959 -3.62501,-2.35626c-0.06042,-0.725 1.57084,-0.78542 2.77918,-0.78542z" fill="#001026" stroke="#001026" stroke-width="1.2" stroke-linecap="round" stroke-linejoin="round"/><path d="M220.10538,171.32892c0,0 5.19585,1.69167 7.31044,3.56459" fill="none" stroke="#001026" stroke-width="1.2" stroke-linecap="round" stroke-linejoin="round"/><path d="M227.59707,177.00811c-2.59792,1.02709 -7.06877,0.3625 -7.06877,0.3625" fill="none" stroke="#001026" stroke-width="1.2" stroke-linecap="round" stroke-linejoin="round"/><g><path d="M254.42216,165.1664c1.75209,2.71876 1.81251,5.80002 0.12083,6.88752c-1.69167,1.0875 -4.47085,-0.18125 -6.28335,-2.90001c-1.75209,-2.71876 -1.81251,-5.80002 -0.12083,-6.88752c1.69167,-1.14792 4.53126,0.18125 6.28335,2.90001z" fill="#ffffff" stroke="#001026" stroke-width="1.2" stroke-linecap="round" stroke-linejoin="round"/><path d="M254.18049,168.61016c0,0.66459 -0.48333,1.20834 -1.0875,1.20834c-0.60417,0 -1.0875,-0.54375 -1.0875,-1.20834c0,-0.66459 0.48333,-1.20834 1.0875,-1.20834c0.60417,0 1.0875,0.54375 1.0875,1.20834" fill="#001026" stroke="none" stroke-width="1" stroke-linecap="butt" stroke-linejoin="miter"/></g><g><path d="M239.43878,166.85808c1.81251,2.65834 1.69167,5.92085 0.06042,7.06877c-1.99376,1.14792 -4.6521,0.30208 -6.4646,-2.35626c-1.87292,-2.65834 -1.99376,-6.1021 -0.12083,-7.43127c1.87292,-1.38959 4.71252,0.06042 6.52502,2.71876z" fill="#ffffff" stroke="#001026" stroke-width="1.2" stroke-linecap="round" stroke-linejoin="round"/><path d="M239.07627,170.36225c0,0.66459 -0.48333,1.20834 -1.0875,1.20834c-0.60417,0 -1.0875,-0.54375 -1.0875,-1.20834c0,-0.66459 0.48333,-1.20834 1.0875,-1.20834c0.60417,0.06042 1.0875,0.54375 1.0875,1.20834" fill="#001026" stroke="none" stroke-width="1" stroke-linecap="butt" stroke-linejoin="miter"/></g></g></g></g></g></svg>