<svg version="1.1" xmlns="http://www.w3.org/2000/svg" xmlns:xlink="http://www.w3.org/1999/xlink" width="65.3557" height="92" viewBox="0,0,65.3557,92"><g transform="translate(-207.32215,-134)"><g data-paper-data="{&quot;isPaintingLayer&quot;:true}" fill-rule="nonzero" stroke-miterlimit="10" stroke-dasharray="" stroke-dashoffset="0" style="mix-blend-mode: normal"><path d="M208.82215,224.5v-89h62.3557v89z" fill="#d4bfff" stroke="#ffffff" stroke-width="3" stroke-linecap="butt" stroke-linejoin="miter"/><g><path d="M239.62702,201.0659v0v0v0v0v0c-0.09888,0.73307 -0.51198,2.08131 -0.80104,2.43075c0,0 -1.19289,1.31585 -2.03918,0.84345c-0.3617,-0.20172 -0.5224,-0.55475 -0.52959,-1.01817c-0.15783,-0.05288 -0.37644,-0.16106 -0.47384,-0.39405c-0.16214,-0.38614 0.66222,-0.68167 0.66222,-0.68167v0.00755c0.03922,-0.12077 0.08055,-0.24121 0.12979,-0.36849c0.28079,-0.71905 0.8988,-1.69517 1.21122,-2.24018c0,0 0.25815,-0.48067 0.89485,-0.46773c0.67736,0.01366 1.04445,1.15547 0.94557,1.88854z" fill="#be1e2d" stroke="#231f20" stroke-width="0.78672" stroke-linecap="round" stroke-linejoin="round"/><path d="M245.14315,203.14613c-0.55475,-0.6353 -0.89557,-2.47712 -0.97536,-2.85355c-0.07947,-0.3764 0.13878,-1.22847 0.63886,-1.40068c0.50008,-0.1726 0.9887,0.31494 0.9887,0.31494c0.36454,0.51122 1.07604,1.4226 1.42764,2.10895c0.06114,0.12189 0.11398,0.23874 0.16573,0.35375l-0.00072,-0.00719c0,0 0.84956,0.21358 0.7266,0.61338c-0.0744,0.24193 -0.27971,0.37065 -0.43251,0.43862c0.03778,0.46198 -0.08518,0.83083 -0.42636,1.06597c-0.79457,0.55619 -2.11258,-0.63419 -2.11258,-0.63419v0v0v0z" fill="#be1e2d" stroke="#231f20" stroke-width="0.78672" stroke-linecap="round" stroke-linejoin="round"/><path d="M243.49008,203.69904c0.62232,-0.18083 1.3863,0 1.3863,0c0,0 0.33834,2.05575 0.44185,2.7996c0.10391,0.74493 0.48934,1.90978 0.48934,1.90978c0,0 0.19449,0.11649 0.13986,0.42065c-0.05611,0.30343 -0.72408,0.36238 -1.56178,0.52169c-0.83626,0.15747 -1.52005,0.02264 -1.65164,-0.27648c-0.13267,-0.29768 0.1147,-0.43646 0.1147,-0.43646c0,0 0.3897,-2.45519 0.03486,-3.30008c0.0018,0.0018 -0.18694,-1.40823 0.60651,-1.6387v0v0v0z" fill="#be1e2d" stroke="#231f20" stroke-width="0.90024" stroke-linecap="round" stroke-linejoin="round"/><path d="M240.80769,203.92951v0v0v0v0v0c1.12169,0.51446 1.24105,1.54557 1.24141,1.54665c-0.22216,0.88658 0.48862,2.94629 0.48862,2.94629c0,0 0.26601,0.0978 0.18263,0.41238c-0.08486,0.3153 -0.7381,0.55475 -1.59054,0.5278c-0.851,-0.02772 -1.51969,0.01725 -1.62216,-0.27504c-0.10248,-0.29229 0.07228,-0.43682 0.07228,-0.43682c0,0 0.01977,-0.70359 0.00647,-1.45571c-0.01406,-0.74996 -0.13698,-2.80859 -0.13698,-2.80859c0,0 0.6234,-0.79417 1.35827,-0.45695z" fill="#be1e2d" stroke="#231f20" stroke-width="0.90024" stroke-linecap="round" stroke-linejoin="round"/><g stroke-width="0.90024"><path d="M245.13417,201.06158v0v0v0v0v0c0.16573,1.11885 -0.10068,3.17927 -1.38271,3.90264c-1.26805,0.71402 -2.61302,0.61837 -4.00723,-0.33291c-1.15515,-0.78846 -1.12748,-3.04337 -1.00667,-4.30495v0c0,0 0.00791,-2.91857 2.46418,-3.27812c2.45551,-0.3595 3.59593,1.87995 3.78574,3.27704c0.0597,0.24593 0.11074,0.49689 0.14669,0.7363z" fill="#be1e2d" stroke="#000000" stroke-linecap="butt" stroke-linejoin="miter"/><path d="M244.45685,204.26781v0v0v0v0v0l-0.00611,0.05715c-0.18842,0.2603 -0.41993,0.48107 -0.69892,0.63854c-1.17456,0.6615 -2.41458,0.62843 -3.69912,-0.13626l-0.0133,-0.05751c0,0 -0.68023,-3.71174 1.68614,-3.87748c2.68706,-0.18694 2.7482,2.75467 2.73131,3.37556z" fill="#e6e7e8" stroke="#231f20" stroke-linecap="round" stroke-linejoin="round"/></g><g stroke-width="0.90024"><g stroke="#000000" stroke-linecap="round" stroke-linejoin="round"><path d="M259.44962,189.1395l-0.21354,0.61837c-1.18462,3.12352 -2.86865,4.92113 -2.86865,4.92113c0,0 0.06042,-0.55763 0.02808,-1.45355l-0.05252,-0.01833c-0.15172,0.47169 -0.40088,1.07999 -0.81502,1.83143c-0.90819,1.6502 -3.57512,3.03363 -3.57512,3.03363c0,0 0.16577,-0.56733 0.26965,-1.49561l-0.03738,-0.14201c-0.28906,0.22256 -0.5889,0.42712 -0.89197,0.62628c-0.08918,0.05899 -0.17831,0.11649 -0.26893,0.1722c-0.27576,0.17153 -0.55655,0.3351 -0.84309,0.4879c-0.11322,0.05966 -0.23079,0.11506 -0.34549,0.1722c-0.20923,0.10463 -0.42137,0.20347 -0.6367,0.29912c-0.15819,0.06937 -0.31745,0.13842 -0.47963,0.20276c-0.16789,0.06761 -0.34046,0.12835 -0.51194,0.19165c-0.3153,0.11286 -0.63526,0.21821 -0.96246,0.3153c-0.10675,0.03163 -0.21354,0.06326 -0.32212,0.09273c-0.23331,0.06402 -0.46845,0.12656 -0.70787,0.18195l0.00072,0.00072c-1.20192,0.28007 -2.47712,0.4627 -3.84225,0.54681c-1.47692,0.09062 -2.81578,0.07588 -4.06617,-0.01114v0c-0.98942,-0.06937 -1.91554,-0.18802 -2.79241,-0.34836c-0.04241,-0.00755 -0.08522,-0.01546 -0.128,-0.023c-0.27109,-0.05144 -0.53786,-0.10607 -0.79956,-0.16502c-0.09133,-0.02125 -0.17871,-0.04425 -0.26965,-0.06617c-0.34768,-0.08267 -0.68562,-0.17328 -1.01889,-0.26965c-0.21066,-0.0611 -0.41993,-0.12368 -0.62448,-0.19018c-0.12153,-0.03846 -0.24341,-0.07875 -0.36242,-0.11937c-0.325,-0.11218 -0.64712,-0.22612 -0.95954,-0.34908l-0.05431,0.05212c0.11793,0.84453 0.40915,1.29896 0.64177,1.51538c0.4742,0.44185 1.38702,0.54685 1.38702,0.54685c0,0 -2.79026,0.39046 -4.30959,-1.76382c-0.16142,-0.22899 -0.32428,-0.46629 -0.47887,-0.71905l-0.06653,-0.14453c-0.33003,-0.11034 -0.66438,-0.25703 -0.99445,-0.44581c-2.01258,-1.15947 -2.26534,-2.11578 -2.26534,-2.11578l0.04205,0.35052c0.19381,0.91358 0.38291,1.49022 0.38291,1.49022c0,0 -2.40879,-1.52436 -3.48163,-3.80875c-0.86498,-1.84401 -0.93367,-2.96102 -0.93942,-3.14872l-0.08091,-0.67085c-0.05212,-2.62704 0.1111,-5.57368 0.47208,-8.47253l0.02228,-0.07728c0.32177,-2.24089 0.0097,-5.95336 2.98295,-9.75204c5.57153,-7.11641 11.26346,-6.86905 14.66777,-12.12848c2.50407,-3.86921 1.8609,-8.30679 1.8609,-8.30679c0,0 1.53554,2.17404 2.14816,3.45072c0.59321,1.24429 1.22668,2.84812 1.22668,2.84812l0.02049,-0.01366c0.01402,-0.04677 0.0266,-0.09457 0.03738,-0.14237c0.16721,-0.74457 0.10104,-1.84545 0.10104,-1.84545c0,0 1.46398,4.29054 3.82748,7.10344c2.36206,2.8115 5.77608,3.61502 10.08638,13.24337c0.53642,1.19649 1.03506,2.20351 1.30184,3.31985l0.12081,0.64245c0.37572,2.00759 0.22796,7.55391 -0.56158,9.95016v0v0v0zM231.8376,179.70994c0,0 -2.79205,2.90024 -2.60799,6.9359c0.16286,3.57077 1.0883,4.67376 1.58694,4.94988c0.5127,0.28223 1.30759,0.11506 1.30759,0.11506c0,0 -2.24844,1.19074 -4.08131,-0.42496c-1.22596,-1.07999 -2.56014,-2.47316 -2.93371,-6.40272M255.07175,186.14105c0,0 0.34692,0.99301 -0.49868,3.06853c-0.95128,2.33834 -2.95851,3.0617 -2.95851,3.0617c0,0 1.66781,-3.60244 0.26821,-6.9895c-0.61082,-1.47979 -2.49617,-2.58207 -4.46418,-3.36042c-2.66693,-1.05559 -5.48526,-1.51577 -5.48526,-1.51577M256.35521,193.16793c-0.15028,0.47744 -0.403,1.10048 -0.82939,1.87205c-0.90783,1.6502 -3.57476,3.03363 -3.57476,3.03363c0,0 0.48179,-1.65523 0.31749,-3.93427M225.67789,187.77867c-0.27396,0.50839 -0.48462,1.05339 -0.60256,1.62899c-0.74062,3.58878 0.56266,7.54173 0.56266,7.54173c0,0 -2.40807,-1.52368 -3.48163,-3.80879c-0.95164,-2.02808 -0.93942,-3.17676 -0.93942,-3.17676M259.23429,189.76038c-1.18534,3.12352 -2.86901,4.92113 -2.86901,4.92113c0,0 0.34768,-3.16809 -1.05483,-6.55551c-0.06326,-0.15315 -0.13482,-0.302 -0.21066,-0.44653M241.93369,180.40559c0,0 0.47748,0.12656 1.73722,1.12927c1.25978,1.00272 1.7232,2.09673 1.7232,2.09673c0,0 -3.71961,-0.97967 -5.77895,-1.72029c-2.05719,-0.74133 -8.9992,-2.63171 -8.9992,-2.63171M230.15505,195.32001c1.00843,1.58407 2.05755,2.44585 2.05755,2.44585c0,0 -2.46741,0.76398 -4.73423,-0.54073c-2.01258,-1.15943 -2.26534,-2.11578 -2.26534,-2.11578M252.18261,196.4367c-2.65939,2.04605 -5.88538,3.04876 -9.80923,3.29034c-4.67808,0.28798 -8.09749,-0.39545 -11.02005,-1.54197M231.27027,197.9758c0.08846,1.01314 0.41418,1.53842 0.66981,1.77568c0.47456,0.44185 1.38738,0.54685 1.38738,0.54685c0,0 -2.79097,0.39046 -4.30994,-1.76382c-0.16142,-0.22899 -0.32428,-0.46629 -0.47887,-0.71905M242.20369,180.52568c0,0 10.18958,1.24289 10.18958,6.80431" fill="#be1e2d"/><path d="M254.39044,189.73486c-0.38003,3.99968 -4.97796,8.17265 -11.70675,8.56598c-5.94042,0.35052 -14.71921,-2.32073 -15.99301,-7.2397c-0.12656,-0.49437 -0.19377,-0.97181 -0.2121,-1.43055l0.12907,0.09421c0.45084,0.66006 0.95092,1.13606 1.43518,1.56174c1.83287,1.61498 4.08131,0.42424 4.08131,0.42424c0,0 -0.79489,0.16789 -1.30759,-0.11434c-0.49864,-0.27612 -1.42408,-1.37911 -1.58694,-4.94988c-0.18407,-4.03638 2.60799,-6.9359 2.60799,-6.9359l0.0097,-0.09277c2.08954,0.57883 6.25244,1.74728 7.76713,2.29341c2.05935,0.74097 5.77895,1.72029 5.77895,1.72029c0,0 -0.46342,-1.09401 -1.7232,-2.09673c-0.63059,-0.50152 -1.06454,-0.78375 -1.34066,-0.94085l0.25887,0.04062c0,0 7.85627,1.16126 9.29509,4.64717c1.39924,3.38742 -0.26785,6.9895 -0.26785,6.9895c0,0 1.70919,-0.61657 2.71873,-2.54756l0.05607,0.01114v0v0v0z" fill="#e6e7e8"/></g><g stroke="#000000" stroke-linecap="round" stroke-linejoin="miter"><path d="M257.16704,182.4333c0,0 3.62037,-4.05359 3.82173,-4.24561c0.20132,-0.19197 1.69764,-2.02624 6.0101,-2.65292c0,0 -2.76937,12.31474 -9.22029,15.13159c0,-0.00036 0.6137,-3.52404 -0.61154,-8.23307v0v0v0zM257.1922,182.53255c-0.09313,-0.38938 -0.37428,-1.07716 -0.37428,-1.07716M257.46939,191.61046c0,0 0.24768,-0.59034 0.30919,-0.94445" fill="#be1e2d"/><path d="M260.3495,188.73071c0,0 -0.64605,-0.49653 -0.72049,-2.12983c-0.0478,-1.01314 0.39728,-2.8607 0.39728,-2.8607l-0.03594,0.05895c0.28223,-0.32644 0.57991,-0.70787 0.84956,-1.12636c0.45695,-0.70791 0.99153,-1.76957 1.48159,-2.81613l0.07584,-0.14417c0,0 1.29573,-1.89505 3.98135,-2.13486l0.03091,0.01689c-0.56585,1.87205 -1.48878,4.61773 -2.5109,6.49333c-1.14649,2.10395 -2.47312,3.63191 -3.59665,4.68135l0.04744,-0.03846v0v0v0zM258.90785,184.85435c0,0 0.94229,-0.92077 1.11845,-1.11418" fill="#929497"/></g><g stroke="#000000" stroke-linecap="round" stroke-linejoin="miter"><path d="M222.2211,190.66601c-6.45056,-2.81685 -9.21997,-15.13159 -9.21997,-15.13159c4.3125,0.62704 5.80883,2.4613 6.01014,2.65292c0.20132,0.19165 3.82173,4.24561 3.82173,4.24561c-1.2256,4.70939 -0.6119,8.23307 -0.6119,8.23307v0v0v0zM223.18173,181.45539c0,0 -0.28115,0.68778 -0.37424,1.07716M222.2211,190.66601c0.06146,0.35411 0.30919,0.94445 0.30919,0.94445" fill="#be1e2d"/><path d="M219.69762,188.76917c-1.12352,-1.0498 -2.4498,-2.57776 -3.59669,-4.68135c-1.02248,-1.8756 -1.94501,-4.62129 -2.5109,-6.49333l0.03095,-0.01689c2.68598,0.24018 3.98135,2.13486 3.98135,2.13486l0.07584,0.14417c0.49002,1.04657 1.02464,2.10823 1.48159,2.81613c0.26965,0.41849 0.56733,0.79992 0.84956,1.12636l-0.03594,-0.05895c0,0 0.44509,1.84756 0.39724,2.8607c-0.0744,1.63331 -0.72049,2.12983 -0.72049,2.12983l0.04748,0.03846v0v0v0zM219.97338,183.74017c0.17616,0.19341 1.11845,1.11418 1.11845,1.11418" fill="#929497"/></g><path d="M236.94822,187.86497v0v0v0v0v0c0.28654,0.08015 0.453,0.37712 0.37208,0.66366c-0.08015,0.28726 -0.37568,0.45371 -0.66438,0.375c-0.01653,-0.00503 -1.68942,-0.45982 -3.32488,0.01689c-0.05032,0.01438 -0.10032,0.02192 -0.15028,0.02192c-0.23367,0 -0.4494,-0.15387 -0.51805,-0.38898c-0.04065,-0.13734 -0.02053,-0.27863 0.04133,-0.39728c-0.10104,-0.08846 -0.19665,-0.20276 -0.26282,-0.36026c-0.07764,-0.18263 0.00791,-0.39401 0.19125,-0.47133c0.18159,-0.07512 0.39369,0.00683 0.47173,0.19093c0.06182,0.14669 0.24085,0.18874 0.24301,0.18946c0.05288,0.01186 0.09924,0.0363 0.13914,0.06793c0.05323,-0.01114 0.10679,-0.02264 0.15927,-0.03163c-0.05535,-0.08339 -0.10675,-0.17688 -0.1377,-0.29193c-0.05104,-0.19233 0.0633,-0.3883 0.25563,-0.4397c0.19377,-0.05319 0.38902,0.06402 0.4397,0.25563c0.04062,0.15315 0.20779,0.22252 0.20923,0.22324c0.07804,0.02664 0.13554,0.08055 0.17764,0.14453c1.28778,-0.06002 2.30056,0.21573 2.35811,0.23191z" fill="#231f20" stroke="none" stroke-linecap="butt" stroke-linejoin="miter"/><path d="M249.81372,187.42204v0v0v0v0v0c-0.0633,0.32069 -0.25563,0.5123 -0.41274,0.62772c0.0399,0.10104 0.06042,0.21214 0.03235,0.32572c-0.07153,0.2887 -0.35735,0.46705 -0.65288,0.39477c-1.11993,-0.27612 -2.56989,-0.3764 -2.86146,-0.07943c-0.10531,0.10675 -0.24337,0.1607 -0.38323,0.1607c-0.1377,0 -0.27396,-0.05216 -0.37931,-0.15603c-0.2121,-0.20855 -0.21498,-0.54972 -0.00575,-0.76258c0.56338,-0.57232 1.75232,-0.55759 2.70363,-0.43251c0.04637,-0.0399 0.12005,-0.12149 0.12724,-0.23439c0.0101,-0.19736 0.16506,-0.36278 0.37716,-0.34046c0.19808,0.01006 0.35016,0.17831 0.34046,0.37712c-0.00719,0.12512 -0.0381,0.23083 -0.07656,0.32716c0.04708,0.0097 0.09201,0.01833 0.13411,0.02808c0.03738,-0.05755 0.08411,-0.10823 0.15172,-0.1377c0.01006,-0.00575 0.16933,-0.08486 0.20024,-0.23874c0.03954,-0.19449 0.22544,-0.32428 0.4228,-0.28223c0.19449,0.03954 0.32069,0.2276 0.28223,0.4228z" fill="#231f20" stroke="none" stroke-linecap="butt" stroke-linejoin="miter"/><path d="M245.62418,191.37572c0,0 -1.03866,2.6389 -4.29665,2.62488c-3.25871,-0.0119 -4.54864,-1.99141 -4.54864,-1.99141" fill="none" stroke="#231f20" stroke-linecap="round" stroke-linejoin="miter"/></g></g></g></g></svg>