<svg version="1.1" xmlns="http://www.w3.org/2000/svg" xmlns:xlink="http://www.w3.org/1999/xlink" width="65.3557" height="92" viewBox="0,0,65.3557,92"><g transform="translate(-207.32215,-134)"><g data-paper-data="{&quot;isPaintingLayer&quot;:true}" fill-rule="nonzero" stroke-miterlimit="10" stroke-dasharray="" stroke-dashoffset="0" style="mix-blend-mode: normal"><path d="M208.82215,224.5v-89h62.3557v89z" fill="#d4bfff" stroke="#ffffff" stroke-width="3" stroke-linecap="butt" stroke-linejoin="miter"/><g><path d="M240.32532,205.10045c0,-0.80179 0.2249,-1.95357 1.46904,-2.21355c1.79494,-0.37654 3.84863,1.44102 4.40719,1.97578c-0.0413,0.2128 0.65715,4.5066 0.65715,4.87844c0,1.25895 -0.33636,1.30883 -0.4669,1.32951c-1.22898,0.1789 -4.50425,-3.26516 -6.0076,-5.26897c-0.02068,-0.10875 -0.05887,-0.35081 -0.05887,-0.70121v0v0z" fill="#ffc93e" stroke="#603813" stroke-width="1.32684" stroke-linecap="butt" stroke-linejoin="miter"/><path d="M235.34864,211.11699c-0.89098,-0.96659 -1.01806,-3.5863 -1.01806,-4.70066c0,-0.47278 0.02415,-0.78734 0.02532,-0.79709l0.00159,-0.02415c0,0 -0.00276,-0.101 -0.00276,-0.13801c0,-2.09893 1.93213,-2.82705 2.25956,-2.93656c1.11864,0.01363 3.0523,0.54293 3.5138,1.3412c0.04677,0.08073 0.09042,0.18201 0.09042,0.31186c0,0.1138 -0.0339,0.25175 -0.13055,0.4182c-0.04483,0.07638 -0.83922,1.95357 -1.51117,3.39301l-0.48018,1.33109c-0.35939,1.16306 -0.92494,2.32695 -1.54043,2.32695c-0.48641,0.00076 -0.88129,-0.1715 -1.20754,-0.52583v0v0z" fill="#ffc93e" stroke="#603813" stroke-width="1.32684" stroke-linecap="butt" stroke-linejoin="miter"/><path d="M260.548,195.9033l-0.86877,-1.53297c-0.95144,-1.65693 -2.05063,-3.17398 -3.01999,-4.5093c-1.24614,-1.72009 -2.33047,-3.49982 -2.68945,-4.75724c-0.12943,-0.45292 -0.06704,-0.88516 0.11927,-1.12411c0.01792,-0.06433 0.20581,-0.1668 0.3383,-0.19412c1.59654,-0.34494 8.20518,3.44912 9.85395,5.47678c2.41543,2.97046 3.38126,7.13677 2.84262,9.23528c-0.22103,0.85755 -0.71525,1.46517 -1.43127,1.7544c-1.82878,0.73899 -3.03203,-0.59481 -5.14465,-4.34873v0v0z" fill="#ffc93e" stroke="#603813" stroke-width="1.32684" stroke-linecap="butt" stroke-linejoin="miter"/><path d="M234.53363,166.62418c2.3461,-1.27498 -0.0752,-6.07582 -2.41778,-10.71919c-1.28039,-2.53904 -3.56368,-6.82732 -2.82158,-7.22918c1.43556,-0.778 8.29366,7.31531 11.07394,10.5773l2.83404,3.22774c0,0 2.02608,2.48599 3.57655,4.125c0.02732,0.02885 1.49325,-0.19876 2.50591,-1.04033c0.82553,-0.6887 0.71637,-1.45929 0.97911,-3.07997c0.24124,-1.48896 0.50321,-4.18346 1.30225,-4.19709c1.2036,-0.01833 1.99488,4.94272 2.30315,6.78049l0.17032,0.98304c0.40422,2.18588 2.5129,8.75786 2.60332,9.03652c0.02885,0.06786 0.07644,0.15593 0.07644,0.15593l0.01751,0.03549l0.02415,0.02961c3.25623,4.03846 5.67824,8.93518 5.67824,13.52285c0,9.71476 -8.5158,16.55336 -19.91435,16.55336c-2.11414,0 -4.18193,-0.29623 -6.14597,-0.87852l-0.10564,-0.03043c0,0 -3.08315,-0.25922 -7.02725,4.92521c-0.79128,1.04068 -0.72072,2.01086 -1.83583,1.71228c-0.37184,-0.09941 -0.6451,-0.37261 -0.86807,-0.86883c-0.53318,-1.18333 -0.13954,-3.98699 0.5122,-5.77841l0.10246,-0.28142l-0.23542,-0.1863c-0.05769,-0.046 -6.45465,-4.7073 -7.10093,-11.38691c-0.5632,-5.82242 2.37806,-9.13746 3.59841,-10.95925l0.70121,-1.16782c0.88516,-2.15386 -0.7807,-5.14853 -2.25092,-7.79121c-0.87782,-1.57779 -2.29463,-3.88018 -1.97461,-4.42117c0.3551,-0.59951 1.62421,0.03819 2.90577,0.64974c1.03915,0.49657 2.03888,1.19814 2.7331,0.73552c0.72183,-0.48059 0.24829,-1.68813 -0.40774,-3.3587c-0.61696,-1.56928 -1.78513,-4.04821 -1.3365,-5.07139c0.12356,-0.28142 0.34023,-0.47901 0.66261,-0.60415c1.19191,-0.4615 2.89602,1.54624 4.27547,3.11664c1.68226,1.91732 3.59059,4.08993 5.80644,2.88357v0v0z" fill="#ffc93e" stroke="#603813" stroke-width="1.32684" stroke-linecap="round" stroke-linejoin="round"/><g stroke="none" stroke-width="0.66342" stroke-linecap="butt" stroke-linejoin="miter"><path d="M236.50083,189.54371v0v0c0,-1.75317 1.4211,-3.17509 3.17433,-3.17586c1.75282,0 3.17392,1.42269 3.17392,3.17586c0,1.75205 -1.42069,3.1728 -3.17392,3.1728c-1.75282,0 -3.17433,-1.42075 -3.17433,-3.1728z" fill="#ffffff"/><path d="M240.10276,187.22381c0.61619,0 1.17475,0.25023 1.57897,0.6548c0.40457,0.40422 0.6548,0.96277 0.6548,1.57897c0,0.61625 -0.25023,1.17481 -0.6548,1.57897c-0.40422,0.40463 -0.96277,0.65485 -1.57897,0.65485c-0.61625,0 -1.17481,-0.25023 -1.57897,-0.65485c-0.40463,-0.40416 -0.65485,-0.96272 -0.65485,-1.57897c0,-0.61619 0.25023,-1.17475 0.65485,-1.57897c0.40416,-0.40457 0.96272,-0.6548 1.57897,-0.6548v0z" fill="#603813"/></g><g stroke="none" stroke-width="0.66342" stroke-linecap="butt" stroke-linejoin="miter"><path d="M251.79248,189.54371v0v0c0,-1.75317 1.42116,-3.17509 3.17509,-3.17586c1.75282,0 3.17398,1.42269 3.17398,3.17586c0,1.75205 -1.42192,3.1728 -3.17398,3.1728c-1.75393,0 -3.17509,-1.42075 -3.17509,-3.1728z" fill="#ffffff"/><path d="M253.16024,189.45758v0v0c0,-1.23321 0.99938,-2.23376 2.23341,-2.23376c1.23321,0 2.23376,1.00091 2.23376,2.23376c0,1.23445 -1.00055,2.23306 -2.23376,2.23306c-1.23403,0 -2.23341,-0.99979 -2.23341,-2.23306z" fill="#603813"/></g><path d="M214.58303,201.79786c-0.65056,-0.4155 -1.02552,-1.10149 -1.08592,-1.9863c-0.14694,-2.16361 1.56534,-6.08204 4.48198,-8.56022c1.99176,-1.69242 9.18311,-4.21348 10.68923,-3.58319c0.12432,0.05223 0.29118,0.1863 0.29623,0.2541c0.14071,0.26779 0.12197,0.70356 -0.08813,1.12528c-0.58229,1.17088 -1.97379,2.72335 -3.51421,4.18464c-1.19737,1.13968 -2.5542,2.42671 -3.7917,3.8833l-1.13504,1.34472c-2.76236,3.30611 -4.19086,4.39979 -5.85244,3.33766v0v0z" fill="#ffc93e" stroke="#603813" stroke-width="1.32684" stroke-linecap="butt" stroke-linejoin="miter"/><path d="M246.00514,197.32522v0v0l5.39917,-0.25998l-0.05617,0.46303c-0.0218,0.17655 -0.50633,3.08626 -2.88239,3.08626c-0.51761,0 -0.96777,-0.18713 -1.33767,-0.56132c-1.08786,-1.0972 -1.12763,-2.25521 -1.12528,-2.35579l0.00235,-0.3722z" fill="#603813" stroke="none" stroke-width="0.66342" stroke-linecap="butt" stroke-linejoin="miter"/></g></g></g></svg>