<svg version="1.1" xmlns="http://www.w3.org/2000/svg" xmlns:xlink="http://www.w3.org/1999/xlink" width="65.3557" height="92" viewBox="0,0,65.3557,92"><g transform="translate(-207.32215,-134)"><g data-paper-data="{&quot;isPaintingLayer&quot;:true}" fill-rule="nonzero" stroke-miterlimit="10" stroke-dasharray="" stroke-dashoffset="0" style="mix-blend-mode: normal"><path d="M208.82215,224.5v-89h62.3557v89z" fill="#d4bfff" stroke="#ffffff" stroke-width="3" stroke-linecap="butt" stroke-linejoin="miter"/><g stroke-width="0.90231"><path d="M237.10054,195.72242v0v0v0v0v0v0c0.99979,1.85734 -1.0372,4.63291 -1.20622,4.87694c-0.29171,0.28462 0,0 -0.00491,0.00696c0,0 -1.46384,1.58053 -2.43208,1.04452c-0.41236,-0.22757 -0.59861,-0.63111 -0.60807,-1.15976c-0.18093,-0.05782 -0.43118,-0.18043 -0.5432,-0.44537c-0.18666,-0.44046 0.75326,-0.78081 0.75326,-0.78081v0.00655c0.0431,-0.13615 0.08946,-0.27598 0.14565,-0.42118c0.31758,-0.82182 1.10035,-2.42863 1.10035,-2.42863c0,0 1.78265,-2.58037 2.79521,-0.69921z" fill="#9a8479" stroke="#000000" stroke-linecap="round" stroke-linejoin="round"/><path d="M248.38667,198.4664v0v0v0v0v0v0c0,0 0.93997,0.34122 0.75204,0.78127c-0.11119,0.26698 -0.36227,0.38918 -0.54238,0.44782c-0.00946,0.52615 -0.19529,0.93133 -0.60802,1.15894c-0.63016,0.34817 -1.4212,-0.16606 -1.89875,-0.56879c-0.2248,-0.15133 -0.47714,-0.31581 -0.70071,-0.44455c-0.56415,-0.32522 -1.90616,-2.52955 -1.64972,-3.76845c0.25644,-1.23891 2.96955,0 2.96955,0c0.63139,0.60697 1.3141,1.41033 1.53276,1.97753c0.05542,0.14556 0.1026,0.28667 0.14524,0.42445v-0.00823z" fill="#9a8479" stroke="#000000" stroke-linecap="round" stroke-linejoin="round"/><path d="M238.18611,200.42589v0v0v0v0v0v0c1.77319,0.67544 2.47309,1.04329 2.22324,2.45608c-0.18747,1.0593 0.71676,3.38541 0.71676,3.38541c0,0 0.439,0.12588 0.28839,0.47982c-0.15056,0.35799 -1.23941,0.59588 -2.65074,0.52083c-1.41093,-0.07464 -2.5195,-0.05823 -2.67947,-0.397c-0.16043,-0.33708 0.13374,-0.49414 0.13374,-0.49414c0,0 0.05455,-0.79931 0.05619,-1.65845c0,-0.85918 -0.13661,-3.20989 -0.13661,-3.20989c0,0 0.2753,-1.7581 2.04849,-1.08266z" fill="#9a8479" stroke="#000000" stroke-linecap="butt" stroke-linejoin="miter"/><path d="M242.76474,200.7396v0v0v0v0v0v0c1.33337,-0.60857 2.14405,-0.70949 2.48581,0.00082c0,0 0.66834,1.24836 1.00474,2.54878c0.33563,1.29964 0.57602,2.79444 0.57602,2.79444c0,0 0.44559,0.23707 0.44228,0.47082c-0.00245,0.23375 -0.38604,0.69103 -2.40867,0.74804c-2.02185,0.05451 -2.74225,-0.27726 -2.80462,-0.5832c-0.06401,-0.30553 0.17311,-0.33258 0.17311,-0.33258c0,0 0.02791,-0.33176 0,-1.13435c-0.02746,-0.80254 -0.36063,-2.28056 -0.36063,-2.28056c0,0 -0.44146,-1.62358 0.89196,-2.2322z" fill="#9a8479" stroke="#000000" stroke-linecap="butt" stroke-linejoin="miter"/><path d="M239.71928,194.07711v0v0v0v0v0v0c3.68508,-0.28503 5.09269,1.85202 5.09187,1.85161c0.29994,0.55197 0.67244,1.33078 0.82713,2.0419c0.04264,0.19643 0.06892,0.41745 0.07546,0.65453c0,0 -0.02173,0.82345 -0.10174,1.07484c-0.33558,1.05316 -0.8821,2.20597 -2.18919,2.7272c-2.05218,0.82182 -4.23646,0.72094 -6.50611,-0.35886c-0.76595,-0.36336 -1.21972,-0.98261 -1.46466,-1.68755c-0.17479,-0.50733 -0.24944,-1.16881 -0.24944,-1.16881c-0.10751,-1.1003 0.08492,-2.17437 0.18747,-2.64147c0,0 0.64457,-2.20842 4.32919,-2.49341z" fill="#9a8479" stroke="#000000" stroke-linecap="butt" stroke-linejoin="miter"/><g stroke-linejoin="miter"><path d="M220.65108,187.80457v0v0v0v0v0v0c-0.02173,-0.03773 -0.65643,-1.0978 -0.65643,-1.09825c-1.76046,-2.82599 -2.15064,-9.2174 -1.99762,-11.21216l0.01355,-0.09556c0.50014,-8.45505 4.43216,-12.96781 6.75432,-15.35625c5.27075,-5.42481 13.25998,-5.64547 13.25998,-5.64547l0.28308,5.48841c0,0 -0.01518,-1.57849 3.19889,-4.33806c3.21326,-2.75957 7.965,-2.35644 7.965,-2.35644l-2.5215,6.87779c0,0 1.48639,-2.14237 2.70452,-2.92527c2.15964,-1.3857 3.98575,-0.79022 3.98575,-0.79022l-0.50337,4.26587c0,0 3.21407,4.16663 5.67402,8.08187c0.52642,0.83536 1.13649,1.681 1.52335,2.65374c1.40683,3.53429 1.6099,9.83343 0.03282,12.95349c-0.27239,0.55201 -0.56902,1.08803 -0.87673,1.61499c-0.08001,0.13533 -0.16043,0.26985 -0.24207,0.40273c-0.28185,0.46341 -0.57602,0.91778 -0.88537,1.35824c-0.04182,0.05864 -0.08001,0.12097 -0.12183,0.17966c-0.35081,0.49005 -0.72085,0.96206 -1.10571,1.42097c-0.09187,0.11074 -0.1887,0.21775 -0.28267,0.32767c-0.32985,0.37895 -0.67162,0.74722 -1.02238,1.10153c-0.08083,0.08287 -0.15961,0.16693 -0.24125,0.24689c-0.42218,0.41259 -0.86196,0.80586 -1.31491,1.18149c-0.10092,0.08246 -0.20429,0.1612 -0.30608,0.24198c-0.38031,0.30349 -0.77336,0.59343 -1.1754,0.86982c-0.1161,0.07874 -0.22934,0.16156 -0.34626,0.23866c-0.4911,0.32276 -0.99411,0.62584 -1.51353,0.90592c-0.09269,0.05046 -0.19116,0.09474 -0.28512,0.14356c-0.44391,0.23089 -0.8981,0.44332 -1.3621,0.64016c-1.96276,0.83209 -4.09408,1.37383 -6.3826,1.53871c-2.61546,0.18825 -4.98317,0.10906 -7.12191,-0.16979c-0.52883,-0.06892 -1.04329,-0.15133 -1.54426,-0.24362c-0.09519,-0.01927 -0.18998,-0.03773 -0.2843,-0.05619c-0.50792,-0.10006 -1.00643,-0.20748 -1.4848,-0.33013c-0.00286,-0.00082 -0.00655,-0.00164 -0.00982,-0.00245c-0.47923,-0.12138 -0.93997,-0.25753 -1.39001,-0.40191c-0.07878,-0.025 -0.15961,-0.05001 -0.23798,-0.07546c-0.43241,-0.14147 -0.85377,-0.2928 -1.25991,-0.45314c-0.07142,-0.02705 -0.14033,-0.05782 -0.2113,-0.08569c-0.40086,-0.16161 -0.79181,-0.32976 -1.16681,-0.50774c-0.01437,-0.00818 -0.03037,-0.01355 -0.04432,-0.02091c-0.384,-0.1837 -0.75081,-0.37563 -1.1073,-0.57211c-0.06651,-0.03687 -0.13256,-0.07296 -0.19734,-0.10988c-0.34299,-0.19479 -0.67535,-0.39372 -0.99206,-0.59875c-0.04841,-0.03078 -0.09437,-0.06278 -0.14238,-0.09392c-0.30071,-0.19848 -0.59161,-0.40109 -0.86978,-0.60779c-0.02868,-0.01968 -0.06028,-0.0406 -0.08778,-0.06232c-0.29008,-0.21775 -0.56411,-0.44046 -0.82832,-0.66475c-0.05132,-0.0431 -0.10178,-0.08655 -0.15102,-0.1296c-0.25762,-0.22434 -0.50542,-0.44905 -0.73849,-0.67912c-0.02664,-0.02505 -0.05087,-0.05169 -0.0771,-0.0771c-0.21952,-0.21861 -0.42791,-0.43882 -0.62484,-0.65907c-0.0275,-0.03196 -0.05869,-0.06314 -0.0866,-0.09428c-0.20184,-0.23171 -0.63798,-0.78127 -0.67162,-0.82513c-0.17556,-0.23212 -0.34299,-0.46382 -0.49437,-0.6943c-0.00941,-0.01437 -0.01846,-0.02873 -0.02705,-0.04305c-0.14524,-0.22189 -0.27735,-0.44046 -0.40086,-0.65825z" fill="#9a8479" stroke="#000000" stroke-linecap="butt"/><path d="M251.67871,175.46955v0v0v0v0v0v0c0,0 4.77965,5.40349 3.30267,11.00878c-1.47616,5.6036 -10.29779,7.97768 -17.07589,7.55159c-8.96033,-0.56388 -13.11437,-5.90014 -11.63985,-10.99278c1.47657,-5.09264 13.33917,-7.47326 13.33917,-7.47326l-1.94798,3.6589c0,0 1.53444,-0.23703 2.77384,-0.94569c1.23904,-0.70739 2.59787,-1.65104 2.59787,-1.65104l-2.83826,4.02103c0,0 3.74863,-0.04019 6.99471,-1.33937c3.24608,-1.29755 4.49371,-3.83814 4.49371,-3.83814z" fill="#e6e7e8" stroke="#000000" stroke-linecap="butt"/><g stroke="#000000"><path d="M257.79464,172.54797c0,0 7.69338,-4.32124 9.45179,-0.64671c1.75846,3.67449 -1.3871,7.98059 -7.95145,11.87655c0,0 0.14483,-6.39719 -1.50034,-11.22985v0v0v0v0v0v0zM257.79464,172.54797c-0.13747,-0.56552 -0.59165,-1.64695 -0.59165,-1.64695M259.12433,184.77392l0.08246,-1.03466" fill="#9a8479" stroke-linecap="round"/><path d="M259.20679,183.73886c0.04264,-1.18481 0.041,-3.13566 -0.22607,-5.57165c-0.15388,-1.41774 -0.45132,-2.88017 -0.75654,-4.14327l0.00082,0.00164c4.5064,-1.14708 8.51724,3.01792 8.51724,3.01792h0.00164c-2.25238,3.7389 -7.50099,6.59198 -7.50099,6.59198l-0.03609,0.10337v0v0v0v0v0v0z" fill="#ee4036" stroke-linecap="butt"/></g><g stroke="#000000"><path d="M221.68701,186.59603c-6.38996,-2.54264 -9.83788,-5.98092 -8.87209,-9.59272c0.9662,-3.61216 8.41673,-0.85464 8.41673,-0.85464c-0.68312,4.64809 0.45537,10.44736 0.45537,10.44736v0v0v0v0v0v0zM221.49213,174.55996c0,0 -0.22893,1.0527 -0.26007,1.58872M221.75843,186.5468l0.2363,0.92928" fill="#9a8479" stroke-linecap="round"/><path d="M221.71042,186.45865c0,0 -5.06809,-1.79501 -7.64051,-4.85275l0.00123,-0.00041c0,0 2.86986,-4.40202 7.01526,-4.04648l0.00041,-0.00123c-0.06892,1.19545 -0.09928,2.57173 -0.01027,3.88492c0.15015,2.25761 0.45705,4.03294 0.68189,5.1041l-0.04801,-0.08815v0v0v0v0v0v0z" fill="#ee4036" stroke-linecap="butt"/></g><path d="M246.45801,184.28755c-0.29744,0 -0.55756,-0.2153 -0.60679,-0.51837c-0.05378,-0.33545 0.17475,-0.65125 0.51037,-0.70494c0.30521,-0.04801 3.01055,-0.47001 4.00752,-0.34613c0.33726,0.04264 0.57684,0.35022 0.53624,0.68566c-0.04269,0.33795 -0.3549,0.57252 -0.6868,0.53601c-0.62729,-0.07628 -2.57691,0.16652 -3.6629,0.33876c-0.03282,0.00655 -0.06564,0.009 -0.09765,0.009v0v0v0v0v0v0v0z" fill="#231f20" stroke="none" stroke-linecap="butt"/><path d="M236.48552,184.41879c-0.03855,0 -0.07755,-0.00409 -0.11774,-0.01109c-1.42079,-0.27476 -3.91933,0.00496 -3.94393,0.00741c-0.33194,0.03691 -0.64171,-0.20261 -0.68107,-0.54051c-0.03855,-0.33713 0.20348,-0.64225 0.54156,-0.6808c0.11078,-0.01105 2.70984,-0.30262 4.31728,0.00741c0.33313,0.06396 0.55224,0.38672 0.48742,0.72176c-0.05705,0.29158 -0.31508,0.49583 -0.60352,0.49583v0v0v0v0v0v0v0z" fill="#231f20" stroke="none" stroke-linecap="butt"/><path d="M246.87114,187.16482c0,0 -1.66036,2.23874 -5.37826,2.23874c-3.71704,0 -4.71237,-1.47143 -4.71237,-1.47143" fill="none" stroke="#231f20" stroke-linecap="round"/></g></g></g></g></svg>