<svg version="1.1" xmlns="http://www.w3.org/2000/svg" xmlns:xlink="http://www.w3.org/1999/xlink" width="65.3557" height="92" viewBox="0,0,65.3557,92"><g transform="translate(-207.32215,-134)"><g data-paper-data="{&quot;isPaintingLayer&quot;:true}" fill-rule="nonzero" stroke-linecap="butt" stroke-linejoin="miter" stroke-miterlimit="10" stroke-dasharray="" stroke-dashoffset="0" style="mix-blend-mode: normal"><path d="M208.82215,224.5v-89h62.3557v89z" fill="#d4bfff" stroke="#ffffff" stroke-width="3"/><g stroke="none" stroke-width="0.81451"><g><path d="M248.8599,206.76315c-0.17764,0 -0.36181,-0.04921 -0.56242,-0.15063c-0.90412,-0.45589 -1.63105,-1.2816 -2.15917,-2.45421l-0.22868,-0.50734l0.51065,-0.22026c0.20311,-0.08718 0.40627,-0.18019 0.61163,-0.28157c1.64198,-0.81698 3.09392,-2.08219 4.31502,-3.75995l0.24547,-0.337l0.38989,0.14701c1.2696,0.4785 2.41772,1.0059 3.41198,1.56684c0.62112,0.35048 0.97415,0.84143 0.99278,1.38195c0.01822,0.527 -0.28121,1.02157 -0.84291,1.3914c-0.34282,0.22541 -0.74914,0.33991 -1.20687,0.33991c-0.50295,0 -1.01535,-0.13747 -1.50043,-0.32388c0.19949,0.22577 0.36544,0.46068 0.52118,0.68972c0.26733,0.39244 0.30745,0.83265 0.10939,1.20758c-0.21843,0.41214 -0.70024,0.67839 -1.22764,0.67839v0c-0.26697,0 -0.52592,-0.06896 -0.74986,-0.20025c-0.71739,-0.42051 -1.33126,-1.00223 -1.85463,-1.56572c0.18601,0.94899 0.22322,1.66674 -0.11562,2.08546c-0.16263,0.20168 -0.39718,0.31255 -0.65976,0.31255z" fill="#f7941e"/><path d="M251.78971,199.71163c-1.18609,1.62993 -2.69749,3.02388 -4.51527,3.92841c-0.21373,0.10577 -0.42598,0.2028 -0.63751,0.29397c0.40193,0.8914 1.00989,1.73825 1.90711,2.19051c0.12547,0.0635 0.2298,0.09193 0.31587,0.09193c0.69953,0 0.2002,-1.87577 0.1539,-2.16463c-0.04375,-0.27207 0.18274,-0.54746 0.42817,-0.54746c0.09412,0 0.19111,0.04048 0.27646,0.13716c0.59927,0.67763 1.26159,1.35638 2.04865,1.81814c0.14701,0.08642 0.31219,0.12511 0.47304,0.12511c0.55109,0 1.05807,-0.45558 0.66599,-1.03147c-0.30893,-0.45441 -0.60545,-0.84174 -1.06098,-1.15358c-0.36763,-0.25206 -0.1539,-0.74699 0.20826,-0.74699c0.06309,0 0.13057,0.01496 0.20025,0.0489c0.56094,0.27172 1.35419,0.63133 2.08439,0.63133c0.3224,0 0.63317,-0.07039 0.9056,-0.24982c0.8228,-0.542 0.80713,-1.3185 -0.11781,-1.84003c-1.05807,-0.59707 -2.19418,-1.10074 -3.33612,-1.53146M251.39543,198.3939l0.78017,0.29357c1.29548,0.48876 2.46917,1.0278 3.48747,1.60226c1.07119,0.60397 1.25608,1.41182 1.27068,1.83963c0.02517,0.71448 -0.37166,1.39507 -1.08905,1.86739c-0.43368,0.2856 -0.94026,0.43001 -1.50702,0.43001c-0.09703,0 -0.19295,-0.00439 -0.28922,-0.01205c0.14441,0.43475 0.11414,0.8936 -0.09739,1.29405c-0.31184,0.58901 -0.98365,0.96981 -1.71129,0.96981c-0.364,0 -0.71851,-0.0952 -1.02632,-0.27539c-0.31985,-0.18744 -0.61857,-0.40229 -0.89794,-0.63205c-0.03063,0.38662 -0.13823,0.73745 -0.37059,1.02448c-0.26549,0.32679 -0.66084,0.51464 -1.08538,0.51464c-0.26186,0 -0.53398,-0.07039 -0.80861,-0.20898c-1.01938,-0.51392 -1.83054,-1.42825 -2.4119,-2.71791l-0.45701,-1.01392l1.02157,-0.44026c0.21117,-0.09081 0.40229,-0.17907 0.58355,-0.2684c1.56357,-0.77834 2.94879,-1.98704 4.11737,-3.59288l0.49091,-0.674z" fill="#000000"/></g><g><path d="M229.61022,207.31536c-0.23124,-0.00036 -0.44169,-0.09811 -0.59269,-0.27498c-0.32536,-0.38223 -0.29213,-1.09089 -0.20679,-1.61865c0.02261,-0.1419 0.05176,-0.28049 0.08459,-0.41617c-0.69733,0.6835 -1.48149,1.31192 -2.4389,1.65877c-0.22832,0.08315 -0.42669,0.12327 -0.60581,0.12327c-0.34864,0 -0.63572,-0.16084 -0.78779,-0.44129c-0.43511,-0.80314 0.54124,-2.34227 0.55109,-2.35758c0.10612,-0.16196 0.21776,-0.31515 0.33481,-0.45956c-0.56748,0.21556 -1.30023,0.44205 -1.85351,0.44205c-0.41357,0 -0.72541,-0.12184 -0.92785,-0.36181c-0.12874,-0.15283 -0.26661,-0.42271 -0.19438,-0.84179c0.12144,-0.70427 0.81698,-1.26996 1.51906,-1.78894l0.11965,-0.08866c0.63424,-0.47667 1.32248,-0.86583 1.98807,-1.2426c0.26007,-0.14696 0.52046,-0.29469 0.77722,-0.4468l0.43041,-0.25528l0.29249,0.40592c1.07737,1.49502 2.46259,2.71173 4.11773,3.61626l0.40193,0.21991l-0.14553,0.43404c-0.39136,1.16639 -0.90161,2.08148 -1.60517,2.87983c-0.49673,0.56277 -0.88482,0.81407 -1.25863,0.81407z" fill="#f7941e"/><path d="M227.65601,199.67151c-0.91214,0.54088 -1.86882,1.01974 -2.71536,1.65617c-0.40811,0.30713 -1.32428,0.93224 -1.42825,1.53366c-0.07218,0.41836 0.1882,0.56354 0.58319,0.56354c0.85894,0 2.35355,-0.68681 2.44145,-0.74005c0.05691,-0.03502 0.11562,-0.05033 0.17289,-0.05033c0.29504,0 0.54782,0.40484 0.27243,0.6277c-0.35523,0.28775 -0.65941,0.64261 -0.90994,1.02596c-0.11051,0.16958 -1.09201,1.95274 -0.22179,1.95274c0.10872,0 0.24655,-0.02772 0.41908,-0.09045c1.06461,-0.38554 1.92901,-1.18976 2.69713,-1.99904c0.07366,-0.07769 0.16228,-0.11092 0.24982,-0.11092c0.22429,0 0.44022,0.21923 0.3735,0.47344c-0.08611,0.32823 -0.18637,0.65905 -0.23965,0.99533c-0.0317,0.19546 -0.17943,1.25899 0.25931,1.25899c0.17473,0 0.44281,-0.16886 0.84837,-0.62878c0.7028,-0.79692 1.162,-1.69302 1.49681,-2.69163c-1.68062,-0.91876 -3.15486,-2.18872 -4.29899,-3.77634M227.95875,198.21953l0.58575,0.81116c1.02887,1.42789 2.35355,2.59097 3.93606,3.45649l0.80386,0.4391l-0.29142,0.86879c-0.40959,1.22106 -0.96981,2.22405 -1.71344,3.06732c-0.43587,0.49382 -0.97491,0.99896 -1.66898,0.99896c-0.38845,0 -0.75644,-0.1707 -1.00921,-0.46722c-0.22573,-0.26549 -0.35523,-0.6273 -0.38733,-1.08028c-0.4734,0.35048 -0.99421,0.65502 -1.57047,0.864c-0.28958,0.10505 -0.54894,0.1561 -0.79258,0.1561c-0.54742,0 -1.02193,-0.27207 -1.26884,-0.72796c-0.35782,-0.66017 -0.10868,-1.53366 0.16667,-2.15554c-0.22721,0.04232 -0.44859,0.06748 -0.65287,0.06748c-0.72505,0 -1.13244,-0.3027 -1.34617,-0.55655c-0.16667,-0.1977 -0.42893,-0.6277 -0.31511,-1.28711c0.16886,-0.9789 1.14776,-1.70288 1.73243,-2.13544l0.11633,-0.08647c0.66232,-0.49785 1.36623,-0.89575 2.04718,-1.28124c0.25676,-0.14517 0.51392,-0.2907 0.76737,-0.44098l0.86077,-0.51061z" fill="#000000"/></g><g><g><path d="M240.58871,204.6339c-0.27207,0 -0.54527,-0.00725 -0.81841,-0.02185l-0.14956,-0.00802c-2.23063,-0.11929 -4.33728,-0.23235 -6.54019,-1.21672c-0.21373,-0.09556 -0.41872,-0.20388 -0.62331,-0.31184c-2.0264,-1.07302 -3.76174,-2.78212 -5.04997,-4.95768c-3.05706,-5.16483 -2.27255,-11.34872 2.15187,-16.96652l0.06605,-0.08356l0.12583,-0.07147c0.0244,-0.02154 0.01384,-0.06309 -0.01899,-0.09995c-0.02078,-0.02369 -0.04594,-0.03976 -0.06238,-0.03976c-0.01128,0 -0.02915,0.00587 -0.04814,0.01608c-2.23865,1.18569 -4.07832,2.90719 -5.78886,5.4176l-0.05436,0.07984c-0.79983,1.17333 -1.62738,2.38678 -2.63659,3.46817c-0.71739,0.7688 -2.06285,1.58654 -3.14317,1.58654c-0.46865,0 -0.87022,-0.15502 -1.16128,-0.44828c-0.35303,-0.35594 -0.52919,-0.89503 -0.52373,-1.60257c0.0219,-2.62894 2.02058,-5.37855 3.97291,-7.72189c1.57342,-1.88781 3.4499,-3.43571 5.26441,-4.93252c0.90927,-0.75022 1.84876,-1.52529 2.73578,-2.33206l-0.00184,-0.02221c-0.34681,-0.45629 -0.7101,-0.91034 -1.06241,-1.3506c-1.24811,-1.56026 -2.53849,-3.1738 -3.32188,-5.12506c-1.07593,-2.67963 -0.66635,-5.79692 1.15398,-8.77741c2.45784,-4.02437 7.63507,-6.42641 13.8503,-6.42641c0.12623,0 0.25206,0.00107 0.37788,0.00291c4.88984,0.07988 10.41755,0.77104 14.33978,5.29397c2.16315,2.49433 3.04179,5.79723 2.35064,8.83575c-0.65797,2.89223 -2.80398,5.2735 -5.0248,7.41592c-0.03972,0.03864 -0.03793,0.05615 -0.03752,0.06524l0.00837,0.08065l-0.00949,0.05141c0.76956,0.54782 1.63616,1.11279 2.55268,1.71018c4.34968,2.83537 9.76253,6.36444 10.21153,11.71782c0.05906,0.70315 -0.09668,1.26118 -0.46247,1.65913c-0.35778,0.38912 -0.90416,0.59519 -1.57924,0.59519c0,0 0,0 -0.00036,0c-0.92714,0 -1.92395,-0.37672 -2.49653,-0.69953c-1.35423,-0.76374 -2.43527,-1.90823 -3.48094,-3.01551l-0.03864,-0.04084c-0.32715,-0.34649 -0.65175,-0.70212 -0.97818,-1.05919c-1.41477,-1.54933 -2.87585,-3.14971 -4.70419,-4.11222c4.37847,5.56308 5.25017,11.0963 2.59719,16.46026c-1.15546,2.3368 -3.01846,4.21767 -5.3884,5.43985c-1.96295,1.01213 -4.22896,1.54714 -6.55336,1.54714z" fill="#898dc5"/><path d="M238.90478,153.23286c-4.9905,0 -10.63674,1.66714 -13.38273,6.16379c-1.52748,2.50163 -2.24416,5.47268 -1.11315,8.2887c0.99202,2.47136 2.83241,4.38214 4.41094,6.47929c0.06565,0.08642 0.0609,0.18637 0.02042,0.27279c0.00842,0.10178 -0.02185,0.20571 -0.11669,0.29254c-2.67631,2.4462 -5.67288,4.46055 -8.01622,7.27183c-1.55193,1.863 -3.82412,4.756 -3.84601,7.37616c-0.00913,1.10728 0.48437,1.499 1.13755,1.499c0.91366,0 2.14023,-0.76629 2.74308,-1.41258c1.00263,-1.0741 1.81415,-2.27367 2.63879,-3.48273c1.60114,-2.34957 3.4499,-4.25014 5.98508,-5.59304c0.10433,-0.05544 0.20683,-0.07948 0.30382,-0.07948c0.57334,0 0.95194,0.84833 0.33445,1.17221c-0.0051,0.00184 -0.01021,0.00546 -0.01531,0.00837c-3.73331,4.73992 -5.38988,10.80967 -2.11099,16.34907c1.16674,1.97061 2.7755,3.66179 4.80409,4.7363c0.20428,0.10792 0.40851,0.217 0.62152,0.31255c2.15693,0.96359 4.18955,1.05368 6.49568,1.17767c0.2637,0.01424 0.52668,0.02118 0.78926,0.02118c2.21971,0 4.39419,-0.50223 6.30278,-1.48624c2.16754,-1.11753 3.99262,-2.85762 5.14879,-5.19621c2.85211,-5.76736 1.15689,-11.26883 -2.67197,-16.04816c-0.28779,-0.3589 -0.04339,-0.82974 0.34573,-0.8301c0.07769,0 0.16161,0.01894 0.24767,0.06126c2.45493,1.20615 4.20782,3.44337 6.0522,5.39534c1.01432,1.0741 2.09204,2.22333 3.39084,2.95573c0.56748,0.32021 1.45852,0.62914 2.22772,0.62914c0.88079,0 1.60221,-0.4052 1.49645,-1.66168c-0.51826,-6.18313 -8.13587,-9.8902 -12.5614,-13.04649c-0.1831,-0.13022 -0.23379,-0.32608 -0.20025,-0.50188c-0.01858,-0.17468 0.03685,-0.35706 0.20168,-0.51679c2.03298,-1.96111 4.22349,-4.29608 4.8709,-7.14345c0.67217,-2.95501 -0.2491,-6.07118 -2.23028,-8.35582c-3.64214,-4.19976 -8.66985,-5.0193 -13.9357,-5.10536c-0.12256,-0.00184 -0.24547,-0.00291 -0.36875,-0.00291M238.90478,152.13866v0c0.1295,0 0.25824,0.00112 0.38662,0.00331c5.01092,0.08168 10.68089,0.79692 14.74502,5.48248c2.27658,2.62527 3.20004,6.10804 2.4706,9.31538c-0.65538,2.88059 -2.68034,5.24072 -4.83691,7.3561c0.64552,0.44532 1.35199,0.90596 2.09128,1.38777c4.44927,2.90065 9.98647,6.51064 10.45772,12.12992c0.09045,1.07379 -0.27866,1.72115 -0.60437,2.0753c-0.32384,0.35232 -0.93076,0.77211 -1.98225,0.77211c-1.03219,0 -2.10516,-0.39754 -2.76533,-0.76992c-1.42641,-0.80422 -2.58626,-2.03262 -3.61003,-3.11657l-0.03829,-0.04048c-0.33154,-0.35124 -0.66344,-0.71448 -0.98441,-1.06608c-0.65139,-0.71305 -1.31187,-1.43698 -2.01144,-2.09934c2.79636,4.80521 3.08227,9.70235 0.7984,14.32048c-1.20758,2.44253 -3.1541,4.40803 -5.62842,5.68381c-2.04024,1.05225 -4.39343,1.60808 -6.80425,1.60808c-0.28121,0 -0.5664,-0.00766 -0.84797,-0.02261l-0.14916,-0.00802c-2.28244,-0.1222 -4.4387,-0.23782 -6.73498,-1.26378c-0.23562,-0.10541 -0.44899,-0.21847 -0.65542,-0.32787l-0.03099,-0.01643c-2.08403,-1.10401 -3.89379,-2.8831 -5.23343,-5.14584c-2.83022,-4.78152 -2.50674,-10.38656 0.82612,-15.65572c-1.25867,1.00299 -2.39367,2.26601 -3.47798,3.8573l-0.054,0.07953c-0.81152,1.19043 -1.65071,2.42175 -2.68836,3.53306c-0.66017,0.70754 -2.1486,1.76051 -3.54327,1.76051c-0.61785,0 -1.15398,-0.21082 -1.54973,-0.60984c-0.45956,-0.46355 -0.68932,-1.13392 -0.68238,-1.99282c0.02333,-2.80071 2.08546,-5.64991 4.09982,-8.06767c1.60589,-1.92681 3.50243,-3.4915 5.33628,-5.00434c0.77977,-0.64302 1.5818,-1.30462 2.34988,-1.98592c-0.25053,-0.32133 -0.50658,-0.64154 -0.75716,-0.95485c-1.27287,-1.59129 -2.58913,-3.23689 -3.40248,-5.26293c-1.1423,-2.84374 -0.71816,-6.13463 1.19446,-9.26652c2.55743,-4.18772 7.90938,-6.68756 14.3168,-6.68756v0z" fill="#000000"/></g><path d="M246.81488,177.05504c0,2.55528 4.46785,7.26493 4.46785,15.41173c0,5.35195 -2.60444,8.56113 -4.39123,10.13348c-2.13472,1.1007 -4.60133,1.59854 -7.09204,1.46542c-2.30613,-0.12363 -4.33871,-0.21373 -6.49568,-1.17767c-0.21301,-0.0952 -0.41689,-0.20423 -0.62152,-0.31255c-1.78603,-1.58108 -4.36352,-4.78407 -4.36352,-10.10831c0,-8.1468 4.46785,-12.85645 4.46785,-15.41168c0,-2.55528 -10.94168,-11.66897 -3.811,-18.96923c4.78591,-4.90005 10.82499,0.35558 10.82499,0.35558c0,0 6.03944,-5.25528 10.82494,-0.35558c7.13104,7.30026 -3.81064,16.4136 -3.81064,18.96883z" fill="#ffffff"/></g><g><g><path d="M239.42779,177.24217c-3.53489,0 -7.46948,-4.70128 -7.46948,-7.88713c0,-2.68401 3.76393,-6.4184 7.46948,-6.4184c3.85479,0 7.48412,3.61585 7.48412,6.4184c0.00036,2.75803 -3.84673,7.88713 -7.48412,7.88713z" fill="#f7941e"/><path d="M239.42779,163.48375c-3.47176,0 -6.92206,3.59176 -6.92242,5.87129c0,2.80617 3.69247,7.34002 6.92242,7.34002c3.23,0 6.93702,-4.76034 6.93702,-7.34002c0,-2.57968 -3.46522,-5.87129 -6.93702,-5.87129M239.42779,162.38955c3.90328,0 8.03158,3.58012 8.03122,6.9655c0,3.02317 -4.04805,8.43418 -8.03122,8.43418c-3.79385,0 -8.01658,-5.02731 -8.01658,-8.43418c0,-2.91306 4.03968,-6.9655 8.01658,-6.9655z" fill="#000000"/></g><path d="M235.40163,173.11898c-0.46467,-0.38662 0.21153,-1.09819 0.64302,-0.84031c1.22361,0.73163 2.59862,2.31088 4.17715,1.77143c0.9815,-0.33517 1.72258,-1.135 2.58335,-1.7408c0.48432,-0.34103 1.13137,0.43328 0.65247,0.84506c-1.00115,0.86109 -2.4728,1.95126 -3.87409,1.86009c-1.59966,-0.10398 -2.96666,-0.88482 -4.1819,-1.89547z" fill="#231f20"/></g><path d="M231.89773,161.13383c0.38151,0 0.72693,0.1977 0.97711,0.51643c0.25022,0.31914 0.4052,0.76011 0.4052,1.24627c0,0.48616 -0.15498,0.92714 -0.4052,1.24627c-0.25018,0.31878 -0.5956,0.51643 -0.97711,0.51643c-0.38147,0 -0.72689,-0.19765 -0.97706,-0.51643c-0.25022,-0.31914 -0.4052,-0.76011 -0.4052,-1.24627c0,-0.48616 0.15498,-0.92714 0.4052,-1.24627c0.25018,-0.31873 0.5956,-0.51643 0.97706,-0.51643z" fill="#231f20"/><path d="M246.6916,161.13383c0.38151,0 0.72729,0.1977 0.97782,0.51643c0.25022,0.31914 0.40524,0.76011 0.40524,1.24627c0,0.48616 -0.15502,0.92714 -0.40524,1.24627c-0.25053,0.31878 -0.59631,0.51643 -0.97782,0.51643c-0.38147,0 -0.72725,-0.19765 -0.97778,-0.51643c-0.25022,-0.31914 -0.40524,-0.76011 -0.40524,-1.24627c0,-0.48616 0.15502,-0.92714 0.40524,-1.24627c0.25053,-0.31873 0.59631,-0.51643 0.97778,-0.51643z" fill="#231f20"/></g></g></g></svg>