<svg version="1.1" xmlns="http://www.w3.org/2000/svg" xmlns:xlink="http://www.w3.org/1999/xlink" width="65.3557" height="92" viewBox="0,0,65.3557,92"><g transform="translate(-207.32215,-134)"><g data-paper-data="{&quot;isPaintingLayer&quot;:true}" fill-rule="nonzero" stroke-miterlimit="10" stroke-dasharray="" stroke-dashoffset="0" style="mix-blend-mode: normal"><path d="M208.82215,224.5v-89h62.3557v89z" fill="#d4bfff" stroke="#ffffff" stroke-width="3" stroke-linecap="butt" stroke-linejoin="miter"/><g><path d="M245.78448,199.9982c0,0 2.7729,3.83156 0.79999,5.273c-1.05866,0.77832 -2.52925,-0.76198 -2.93496,-1.3187c-0.58803,-0.80879 -0.78184,-1.00348 -0.90765,-2.01753c-0.12449,-1.01189 -0.62203,-4.73261 -0.42029,-6.07959c0.31742,-2.11067 1.7703,-5.62348 2.82368,-0.70812c0,0 0.332,2.7844 0.59688,4.64476l0.04236,0.20618v0zM245.18407,199.22517l0.59997,0.77303" fill="#f05a28" stroke="#000000" stroke-width="0.9025" stroke-linecap="round" stroke-linejoin="miter"/><g stroke-width="0.9025"><path d="M244.13735,195.59407c-0.19073,1.26744 -0.69888,4.56879 -0.61718,5.22085l-0.11877,-0.26621c0.2437,0.6887 0.49005,1.66792 0.41193,2.68681c-0.15189,1.97737 -1.23745,3.03691 -2.39106,3.60243l-0.01282,0.06447l-0.98978,3.94769c0.01903,-0.00044 0.1872,0.00969 1.3708,0.12361c1.50013,0.14391 0.8017,1.0476 0.8017,1.0476l-2.79628,-0.04945l-0.14303,-0.00176l-5.65044,-0.10111c-0.06932,-0.23001 -0.01414,-0.94121 0.34393,-2.74023c0.13814,-0.7068 0.26621,-1.31469 0.37788,-1.81178l0.00088,-0.00357c-1.90893,-1.4838 -1.67981,-3.77991 -1.09794,-5.40453c0.37084,-1.03924 2.48772,-8.88379 2.48772,-8.88379c0,0 0.92003,-3.01259 4.72772,-1.96411c0,0 4.383,0.7293 3.29519,4.53132c0,0.00176 -0.00044,0.00176 -0.00044,0.00176v0zM238.56151,207.35584c0,0 1.12225,0.18099 2.86032,-0.51656M243.52017,200.81624c-0.09979,-0.456 -0.69046,-1.25995 -0.69046,-1.25995M235.06679,205.92101c0,0 -0.12758,0.39779 -0.34168,1.39374" fill="#f05a28" stroke="#000000" stroke-linecap="round" stroke-linejoin="round"/><path d="M239.91949,211.9211c-0.00352,0 -0.00704,0 -0.00925,0c-0.12229,-0.00572 -0.2168,-0.1086 -0.21147,-0.23001c0.00484,-0.10948 -0.02431,-0.19337 -0.09099,-0.26488c-0.28073,-0.29756 -1.1315,-0.31077 -1.64004,-0.31874c-0.15277,-0.0022 -0.28876,-0.00484 -0.39559,-0.01145c-0.06667,-0.00489 -0.12802,-0.03977 -0.16597,-0.09451c-0.03796,-0.05518 -0.04945,-0.12449 -0.03048,-0.18897c0.18231,-0.61537 0.3589,-1.23789 0.53549,-1.86036l0.2234,-0.78536c0.03356,-0.11745 0.15453,-0.1872 0.27281,-0.15145c0.11745,0.03312 0.185,0.15585 0.15189,0.27286l-0.2234,0.78404c-0.15052,0.53153 -0.30152,1.06394 -0.456,1.59107c0.03043,0.00044 0.06222,0.00088 0.09446,0.00176c0.6525,0.00929 1.54607,0.02338 1.95487,0.45693c0.14964,0.15805 0.22071,0.35626 0.21147,0.58539c-0.00665,0.12097 -0.10419,0.21367 -0.2212,0.21367v0v0z" fill="#000000" stroke="none" stroke-linecap="butt" stroke-linejoin="miter"/></g><path d="M236.92632,197.0783l-1.44848,2.3844l0.0066,-0.04197c0.04637,1.6754 -0.06667,4.58517 -1.40034,5.06153c-0.7183,0.25515 -2.40696,0.6662 -2.25331,-3.9428c0.12317,-3.71235 3.43778,-6.99296 4.72156,-8.1271c0,0 1.14255,0.63572 1.1876,1.863c0.045,1.22732 -0.81451,2.80118 -0.81363,2.80294v0zM235.48488,199.42074c0,-0.71032 -0.19689,-1.1518 -0.19689,-1.1518" fill="#f05a28" stroke="#000000" stroke-width="0.9025" stroke-linecap="round" stroke-linejoin="miter"/><g stroke-linejoin="miter"><path d="M221.8605,165.27666c0,0 0.41061,-1.68289 3.90445,-5.25974c3.49203,-3.57504 7.27237,-4.80633 9.77951,-5.83407c2.50714,-1.02779 4.19051,-6.16299 4.19051,-6.16299c0,0 2.30844,2.87132 4.68095,5.48221c2.42104,2.66255 8.05866,4.99617 14.0998,11.07659c0.72094,0.72803 1.33372,1.49001 1.84891,2.27185l0.10419,0.09138c1.34957,1.17034 6.13471,5.8394 5.52105,12.63724c-0.46882,5.17893 -2.82363,6.81549 -3.9653,7.2552l-0.00929,0.03796c0.58808,-1.16505 0.93813,-2.40118 1.10371,-3.65629c0.54567,-4.15074 -1.69086,-6.84773 -3.12476,-10.45765c-1.85904,-4.68144 -6.94439,-7.31527 -13.52899,-7.18413c-12.53172,0.24767 -15.29181,7.29316 -15.29181,7.29316l-0.00929,0.09138c2.32482,4.3176 3.25327,13.89455 -1.50718,16.76059c-5.12771,3.08284 -12.7202,2.00696 -15.67722,-9.90493c-2.70667,-10.90176 5.39793,-14.33646 7.78189,-14.30819l0.09886,-0.22957v0zM260.3642,166.85051c0,0 3.28809,5.22398 2.21794,11.67964M221.7612,165.50578c2.30535,0.06222 3.85054,1.71248 3.85054,1.71248M231.16371,172.95788c-0.38806,-0.60525 -0.65867,-1.10371 -0.65867,-1.10371" fill="#f05a28" stroke="#000000" stroke-width="0.9025" stroke-linecap="round"/><path d="M262.73535,185.09973c0,0 1.03748,-1.88242 1.73767,-5.33258c0.69927,-3.45231 -0.23358,-8.14652 -0.23358,-8.14652c1.15889,2.10186 2.03656,4.79928 1.75313,7.95848c-0.45429,5.04607 -2.79633,6.76692 -3.96623,7.2552l0.709,-1.73459v0z" fill="#404041" stroke="#000000" stroke-width="0.9025" stroke-linecap="butt"/><g stroke="#231f20" stroke-width="0.9025"><path d="M214.24948,180.87571v0v0c-0.52933,-2.04404 -0.98978,-5.23146 -0.56509,-7.70989c0.43619,-2.55747 1.94029,-4.21478 3.59583,-4.61653c3.09962,-0.75537 6.84641,3.71279 8.37168,9.97733c1.43566,5.9052 0.38894,11.29779 -2.33143,12.5326c0,0 -0.89087,0.11344 -2.68857,-0.8737c-1.79637,-0.98577 -3.34949,-2.67884 -3.98301,-3.77369c-0.63528,-1.09354 -1.86921,-3.48812 -2.39942,-5.53612z" fill="#404041" stroke-linecap="butt"/><path d="M216.17475,175.66631c1.19245,-0.51079 3.21619,1.54343 4.5207,4.59002c1.30324,3.04444 1.39462,5.92946 0.20354,6.43981c-1.19333,0.50991 -3.21614,-1.54519 -4.51982,-4.5909c-1.30544,-3.04532 -1.39594,-5.92814 -0.20442,-6.43893v0zM221.41903,186.19816c-4.91008,-3.11199 -4.85529,-10.60865 -4.85529,-10.60865" fill="#929497" stroke-linecap="round"/></g><path d="M229.24818,190.00101v0v0l-0.02651,-0.034c0.1466,-0.07944 0.2914,-0.16245 0.43443,-0.24811c4.76661,-2.86956 3.82848,-12.46857 1.49837,-16.77604l0.01898,-0.07592c0,0 2.76009,-7.04638 15.29445,-7.2936c6.5846,-0.13115 11.66907,2.50269 13.52855,7.18413c1.43346,3.61036 3.67087,6.30734 3.12432,10.45765c-0.57037,4.31936 -3.32963,8.4454 -10.43911,10.12741c-7.10953,1.68778 -6.82346,0.78365 -9.20655,1.80743c-2.38259,1.0295 -2.50577,1.48111 -2.50577,1.48111c0,0 0.7633,-1.49392 -2.29039,-2.25722c-4.61076,-1.14872 -8.85645,-3.98037 -9.43078,-4.37283z" fill="#e6e7e8" stroke="#000000" stroke-width="0.9025" stroke-linecap="round"/><path d="M248.31857,189.05535c-5.61336,0.37837 -6.24028,-6.92145 -6.24028,-6.92145c0,0 3.20821,-0.10194 7.34834,-0.3589c4.1393,-0.25515 5.13172,0 5.13172,0c0,0 -0.62775,6.90158 -6.23979,7.28035v0z" fill="#ffffff" stroke="#000000" stroke-width="0.98409" stroke-linecap="round"/><path d="M256.82888,177.59158c-0.06976,0 -0.13995,-0.00969 -0.21147,-0.02955c-0.39691,-0.11613 -0.62604,-0.53334 -0.50815,-0.93064c0.05342,-0.18544 0.06491,-0.377 0.03444,-0.56861c-0.11349,-0.72006 -0.81055,-1.21099 -1.53721,-1.09662c-0.73463,0.11564 -1.23921,0.79642 -1.12621,1.51779c0.06447,0.40924 -0.21543,0.79329 -0.62511,0.85732c-0.41237,0.06447 -0.79333,-0.21455 -0.85737,-0.62511c-0.24282,-1.53721 0.82205,-2.98838 2.37516,-3.23424c1.55042,-0.24018 3.00995,0.80874 3.25542,2.34508c0.06491,0.41281 0.03884,0.82469 -0.07905,1.22468c-0.09622,0.32711 -0.3951,0.5399 -0.72045,0.5399v0v0z" fill="#000000" stroke="none" stroke-width="0.9025" stroke-linecap="butt"/><path d="M242.52065,177.59158c-0.06932,0 -0.13995,-0.00969 -0.21147,-0.02955c-0.3973,-0.11613 -0.62599,-0.53334 -0.50854,-0.93064c0.05342,-0.18544 0.06486,-0.377 0.03532,-0.56861c-0.11393,-0.72006 -0.80879,-1.21099 -1.53765,-1.09662c-0.73463,0.11564 -1.23926,0.79642 -1.12621,1.51779c0.06398,0.40924 -0.21543,0.79329 -0.62516,0.85732c-0.41232,0.06447 -0.79333,-0.21455 -0.85776,-0.62511c-0.24238,-1.53721 0.82244,-2.98838 2.37511,-3.23424c1.54783,-0.24018 3.01132,0.80874 3.25547,2.34508c0.06486,0.41281 0.03928,0.82469 -0.07861,1.22468c-0.09622,0.32711 -0.3951,0.5399 -0.7205,0.5399v0v0z" fill="#000000" stroke="none" stroke-width="0.9025" stroke-linecap="butt"/></g></g></g></g></svg>