<svg version="1.1" xmlns="http://www.w3.org/2000/svg" xmlns:xlink="http://www.w3.org/1999/xlink" width="65.3557" height="92" viewBox="0,0,65.3557,92"><defs><linearGradient x1="568.26463" y1="-231.30459" x2="570.37251" y2="-244.93168" gradientUnits="userSpaceOnUse" id="color-1"><stop offset="0" stop-color="#ff9900"/><stop offset="1" stop-color="#ffcc99"/></linearGradient></defs><g transform="translate(-207.32215,-134)"><g data-paper-data="{&quot;isPaintingLayer&quot;:true}" fill-rule="nonzero" stroke-linejoin="miter" stroke-miterlimit="10" stroke-dasharray="" stroke-dashoffset="0" style="mix-blend-mode: normal"><path d="M208.82215,224.5v-89h62.3557v89z" fill="#d4bfff" stroke="#ffffff" stroke-width="3" stroke-linecap="butt"/><g><g stroke="none" stroke-width="0.85738" stroke-linecap="butt"><path d="M255.8121,174.31771c-1.30353,2.28495 -0.8773,4.71116 -0.67828,7.11894c-0.32687,1.69603 -0.82707,3.21811 -1.25385,4.81365c0.151,2.47364 1.65999,3.7303 2.64366,5.45784c-0.44857,2.92755 -0.99818,5.8202 -2.61015,8.33877l0.50857,1.93272c-2.51831,1.77332 -4.61879,0.42763 -5.72888,-0.40725l-1.15253,-14.6103c-2.54263,0.34696 -5.08494,0.25345 -7.62757,-0.1019c-1.74402,2.75643 -3.37663,5.58849 -3.65382,8.23299c-0.35926,3.4297 0.95462,6.44711 1.00961,7.56419c-0.61493,0.99177 -1.58769,0.9097 -2.50828,0.98311l-0.50801,0.84715c-1.67256,0.72546 -3.34512,0.43684 -5.01738,-0.23753c-1.81435,-3.63347 -0.02904,-17.42172 3.01714,-16.20332c-1.71081,-4.09092 -1.79539,-8.40157 1.45762,-12.06851c-1.14667,-0.51361 -3.09167,-0.87089 -3.49139,5.69541l-0.37319,-0.71237c-0.43239,2.57109 -0.32491,5.28591 -1.62678,7.66104l-0.40696,-0.61073c-0.8212,0.91917 -2.43962,5.90865 -8.40688,3.05146l0.98282,-0.13537c-3.80596,-1.65384 -3.78922,-3.70324 -3.99996,-5.72832c1.01716,1.45983 5.04558,4.23831 8.03423,1.38977l-1.62734,0.03379c1.50899,-0.36148 3.32392,-2.98003 4.17499,-8.97213l-0.92086,0.02289c2.94624,-4.79157 6.01446,-5.0336 9.15246,-2.67856c1.48022,-0.58924 2.96017,-0.54125 4.44071,-0.50857c2.03264,0.70061 4.04824,1.69349 6.20397,0.30535l-0.20351,-0.7796l-0.54207,0.67799c-0.26543,-2.83623 0.04076,-5.67222 1.22009,-8.50849l-1.15253,0.67802c0.6554,-1.75183 1.29211,-3.51565 2.47508,-4.91552c0.0293,-2.24448 -0.25736,-4.1772 2.30507,-7.05086c0.91497,0.50775 1.5369,1.48305 2.00024,2.71206l2.88148,-1.76271l-0.33888,0.88121c1.94669,-0.49909 3.19578,-1.81489 8.10179,1.11877l-1.05118,-0.03379c2.52528,2.42344 2.44044,4.94732 2.71176,7.45785l-2.16914,-0.74613c0.14403,2.01225 0.32046,4.01614 -0.23783,6.20371c2.45776,3.46877 -4.3014,3.70044 -6.034,3.59327z" fill="#ff9900"/><path d="M256.9476,167.4195c0.04581,1.36412 -0.04968,2.3972 -1.45733,2.66068c-2.06754,0.38716 -3.62091,-1.46739 -3.49165,-3.4576c0.07482,-1.15559 1.65944,-2.2562 2.81364,-2.08453c1.18242,0.17558 2.0748,1.07967 2.13535,2.88145z" fill="#ffffff"/><path d="M262.28935,172.10725c-0.84995,1.90283 -2.89431,2.43708 -5.5935,2.22049c-1.5369,-0.38967 -5.64042,0.32687 -4.89849,-2.86472c0.49352,-2.12168 5.66887,-2.49071 8.16964,-0.01703l2.32236,0.66126z" fill="#ffffff"/><path d="M248.57478,186.64052c-3.16339,0.47591 -6.39378,0.69111 -9.91502,-0.2208c0.76091,-1.07075 1.42051,-2.16774 1.64407,-3.37302c1.41715,-0.20182 3.68986,-0.51192 6.32205,0.33914c1.64661,0.71038 1.68933,2.02313 1.9489,3.25468z" fill="#ffffff"/><path d="M226.68501,189.58871c-1.24939,1.2798 -2.9211,3.43442 -7.23982,1.46208l0.88762,-0.07202c-2.25398,-1.1037 -4.12722,-2.53869 -3.97929,-5.72832c1.25024,1.73842 5.6622,3.88464 7.95831,1.3426l-1.40569,0.10106l1.74122,-1.41995h0.57557l-0.05414,0.54542l0.89263,-0.56912l-0.69476,2.30087l1.89365,-0.83908l-0.57531,2.87647z" fill="#ffffff"/><path d="M262.02587,170.02969c-1.18493,0.43545 -1.45957,-1.05151 -1.41103,-3.13158c0.12114,-1.53188 0.98786,-1.99998 1.53804,-1.9235c0.24369,1.68483 0.18896,3.36996 -0.127,5.05508z" fill="#ffffff"/></g><g><path d="M254.58198,164.4381c0.53425,0.02038 1.10927,0.17809 1.56675,0.63055c0.45752,0.45276 0.78689,1.19274 0.86307,2.35364c0.07035,0.96859 -0.07202,1.63209 -0.35337,2.07675c-0.28135,0.44436 -0.70061,0.65705 -1.13385,0.72601c-0.43291,0.06922 -0.88401,0.00225 -1.26446,-0.10496c-0.38016,-0.10718 -1.09475,-0.48594 -1.49112,-1.03081c0.92617,1.00655 3.05455,1.57235 3.71692,0.30144c0.24929,-0.39358 0.39358,-1.01407 0.32491,-1.95531c-0.07423,-1.12825 -0.39217,-1.81379 -0.80584,-2.22299c-0.41341,-0.4092 -0.93258,-0.55128 -1.43307,-0.57c-0.55769,-0.02119 -1.11093,0.22024 -1.56395,0.58924c-0.45306,0.36903 -0.80027,0.86337 -0.94879,1.32811l-0.19427,-0.06056c0.16356,-0.51192 0.53399,-1.0339 1.01632,-1.42666c0.48177,-0.39328 1.07996,-0.6579 1.70075,-0.63446z" fill="#000000" stroke="none" stroke-width="0.85738" stroke-linecap="butt"/><path d="M255.35907,168.80345c0.00531,-0.20152 0.16972,-0.36258 0.3718,-0.36258c0.20491,0 0.37128,0.16662 0.37128,0.3718c0,0.20517 -0.16636,0.37154 -0.37128,0.37154c-0.20514,0 -0.3718,-0.16636 -0.3718,-0.37154" fill="#000000" stroke="none" stroke-width="0.85738" stroke-linecap="butt"/><path d="M261.16586,168.60554c0.00501,-0.20123 0.16972,-0.36229 0.37095,-0.36229c0.20547,0 0.37183,0.16662 0.37183,0.3715c0,0.20547 -0.16636,0.3718 -0.37183,0.3718c-0.20488,0 -0.37095,-0.16633 -0.37095,-0.3718" fill="#000000" stroke="none" stroke-width="0.85738" stroke-linecap="butt"/><path d="M261.76291,164.86489c0.17222,-0.01254 0.34109,0.02292 0.49072,0.09884l-0.0921,0.18144c-0.23727,-0.12004 -0.52282,-0.11698 -0.78018,0.07618c-0.25625,0.1929 -0.49072,0.58898 -0.57026,1.27732c0,0.00221 0.00055,0.00446 0,0.00642c-0.11111,0.97389 -0.2529,1.88219 0.08709,2.84547c0.23333,0.62495 0.48457,0.89684 1.24854,0.59455c-0.30789,0.20514 -0.58644,0.33549 -0.81981,0.20654c-0.23278,-0.12866 -0.40168,-0.37876 -0.55072,-0.68776l-0.00361,-0.00615l-0.00365,-0.00335c-0.39052,-1.02888 -0.26016,-2.00695 -0.16245,-2.96492l0.00365,-0.00335v-0.00335c0.08234,-0.72826 0.32879,-1.18519 0.64618,-1.42357c0.15881,-0.11893 0.33468,-0.18144 0.50661,-0.1943z" fill="#000000" stroke="none" stroke-width="0.85738" stroke-linecap="butt"/><path d="M260.93949,172.62252c-0.61157,-0.08764 -1.60725,-0.40754 -1.59358,-0.95768c0.02848,-0.47676 0.63837,-0.5979 1.56789,-0.53399c0.76648,-0.01647 1.57541,-0.06225 1.50841,0.49154c-0.338,0.85276 -0.94346,0.95352 -1.48272,1.00014z" fill="#000000" stroke="none" stroke-width="0.85738" stroke-linecap="butt"/><path d="M257.69348,173.72453c-0.86197,-0.22777 -0.75395,-0.92028 -0.72884,-1.33899c0,0 2.45805,0.54236 2.62722,0.57612c-0.42096,0.65653 -1.02553,0.96442 -1.89837,0.76287z" fill="none" stroke="#000000" stroke-width="0.42869" stroke-linecap="butt"/><path d="M255.77805,171.92747c-0.11834,0 -2.28804,-0.69502 -2.28804,-0.69502" fill="none" stroke="#000000" stroke-width="0.85738" stroke-linecap="round"/><path d="M253.09171,173.22433c0,0 2.61071,-0.35562 2.72905,-0.35562" fill="none" stroke="#000000" stroke-width="0.85738" stroke-linecap="round"/><path d="M262.075,172.73279l1.45788,0.50857" fill="none" stroke="#000000" stroke-width="0.85738" stroke-linecap="round"/><path d="M263.76149,171.55457l-1.40709,0.27159" fill="none" stroke="#000000" stroke-width="0.85738" stroke-linecap="round"/><path d="M252.05977,166.55783c-0.73831,0.34614 -1.20335,-0.08344 -1.358,-0.39497c0.37544,0.33022 0.82681,0.43408 1.25443,0.2289z" fill="#000000" stroke="none" stroke-width="0.85738" stroke-linecap="butt"/><path d="M252.10049,166.1693c-0.53761,-0.02093 -0.98112,-0.26241 -1.24604,-0.57195c0.38687,0.21464 0.87118,0.38687 1.34764,0.35562z" fill="#000000" stroke="none" stroke-width="0.85738" stroke-linecap="butt"/><path d="M252.3545,165.72435c-0.42008,-0.11528 -0.85077,-0.21354 -1.0001,-0.8815c0.24619,0.3436 0.6582,0.63922 1.12711,0.68639z" fill="#000000" stroke="none" stroke-width="0.85738" stroke-linecap="butt"/><path d="M262.21457,165.1873c0.66011,0.13371 0.79217,-0.01843 1.25831,-0.27579c-0.25511,0.49017 -0.61799,0.51111 -1.19831,0.54571z" fill="#000000" stroke="none" stroke-width="0.85738" stroke-linecap="butt"/><path d="M261.97479,164.88192c0.49935,0.07006 0.95993,-0.12977 1.28289,-0.56326c-0.24202,0.68385 -0.65989,0.77764 -1.12102,0.79076z" fill="#000000" stroke="none" stroke-width="0.85738" stroke-linecap="butt"/></g><g stroke-linecap="butt"><path d="M255.74067,174.22502l0.24505,0.18424c-0.97976,1.31916 -1.1246,3.15333 -0.78406,5.70068c0.2205,1.6455 -0.0712,2.83906 -0.41369,3.77695c-0.3425,0.93789 -0.72181,1.62288 -0.72295,2.24533c-0.00166,1.39342 0.60516,2.56412 1.22624,3.52571c0.31065,0.48066 0.6233,0.90664 0.86307,1.2865c0.24004,0.37935 0.41868,0.70872 0.42037,1.03198c0.01563,2.48315 -0.77319,4.95569 -1.75799,6.81805c-0.49239,0.93118 -1.03194,1.71137 -1.55392,2.26405c-0.52224,0.55379 -1.02218,0.89573 -1.48386,0.90129c-0.93786,0.01257 -1.629,-0.654 -2.06418,-1.42634c-0.43486,-0.77237 -0.63697,-1.65443 -0.59872,-2.21046c0.02178,-0.31541 0.20768,-0.72129 0.46445,-1.20697c0.25765,-0.48512 0.59093,-1.03836 0.92086,-1.57987c0.32967,-0.54096 0.6582,-1.06994 0.89797,-1.50619c0.12059,-0.218 0.21744,-0.41311 0.2836,-0.57c0.06671,-0.15686 0.09715,-0.28191 0.09601,-0.32491c0,0 -0.0254,-0.08178 -0.09881,-0.1845c-0.07286,-0.10271 -0.18616,-0.23503 -0.32182,-0.38212c-0.27077,-0.29451 -0.63951,-0.65709 -1.02553,-1.05737c-0.77152,-0.80027 -1.61005,-1.72921 -1.85344,-2.59228c-0.14989,-0.53259 -0.02149,-1.03029 -0.02233,-1.68457c0.05278,-1.09641 -0.31401,-2.23305 -0.62636,-3.00233c0.71764,1.23822 0.932,2.31064 0.932,3.00233c0.00059,0.69085 -0.11333,1.16621 0.0095,1.6011c0.20768,0.73581 1.01547,1.66865 1.78029,2.46166c0.38241,0.39722 0.75228,0.76091 1.03168,1.06404c0.13983,0.15158 0.25707,0.2892 0.3436,0.41115c0.08709,0.12173 0.15269,0.22024 0.1566,0.3534c0.00361,0.13788 -0.04493,0.27829 -0.11779,0.45247c-0.07286,0.17418 -0.17613,0.37544 -0.29923,0.59901c-0.24593,0.44635 -0.57501,0.97836 -0.90439,1.51876c-0.32937,0.54041 -0.65985,1.08999 -0.91135,1.56369c-0.25095,0.47396 -0.4162,0.88765 -0.42987,1.08638c-0.031,0.45358 0.15604,1.3203 0.56049,2.03849c0.40445,0.7182 1.00264,1.28094 1.79315,1.27062c0.29923,-0.00391 0.76817,-0.2797 1.26417,-0.80587c0.49632,-0.52588 1.02749,-1.28595 1.50955,-2.19704c0.96413,-1.823 1.73536,-4.25508 1.72003,-6.67233c-0.00114,-0.20182 -0.14126,-0.50664 -0.37293,-0.87229c-0.23112,-0.36623 -0.54317,-0.7933 -0.85972,-1.28403c-0.6328,-0.98002 -1.27899,-2.21127 -1.27703,-3.69403c0.00111,-0.73913 0.40894,-1.43444 0.74222,-2.34693c0.33299,-0.91276 0.60767,-2.03905 0.39497,-3.63093c-0.34503,-2.5775 -0.20712,-4.51077 0.84409,-5.92652z" fill="#000000" stroke="none" stroke-width="0.85738"/><path d="M253.87997,200.14907c0.52282,1.11321 0.78995,1.88665 0.15269,2.22303c-2.37431,0.93564 -5.28119,-0.23141 -5.33422,-0.85415l-1.26137,-14.48164" fill="none" stroke="#000000" stroke-width="1.28606"/><path d="M248.68951,186.61679c-2.33883,0.97055 -9.61218,0.44772 -10.01943,-0.33579" fill="none" stroke="#000000" stroke-width="1.28606"/><path d="M234.5783,203.61061c0.55323,0.02119 1.10285,0.05304 1.70212,-0.09604c0.41119,-0.18896 1.44479,-0.48011 0.8871,-2.10996c-2.52893,-6.57075 0.13342,-9.88377 2.75643,-14.69377" fill="none" stroke="#000000" stroke-width="1.28606"/><path d="M238.39654,174.28561c0.48011,0.01589 0.98171,0.07202 1.5059,0.17222h0.00335c1.21898,0.24815 3.93882,1.64072 5.89527,0.17222l0.1817,0.2417c-2.13675,1.60445 -5.05925,0.10525 -6.13417,-0.11444c-0.00114,0 -0.00225,0 -0.00365,0c-4.08089,-0.77654 -6.65784,1.13775 -7.88545,3.93996c-1.2282,2.80221 -1.06519,6.50125 0.42678,9.21021l0.14627,0.27048l-0.30258,-0.04438c-0.49799,-0.07035 -0.89182,0.03181 -1.21983,0.32182c-0.32797,0.28975 -0.59175,0.78494 -0.76759,1.50619c-1.01801,4.0639 -2.36286,8.45659 -1.34068,13.28053c0.00029,0.00085 0,0.00225 0,0.00306c0.06866,0.30063 0.13788,0.52953 0.23587,0.7012c0.09796,0.17193 0.21911,0.29281 0.42959,0.39523c0.41952,0.20406 1.20528,0.30704 2.63415,0.38827c0.0042,0 0.00866,0 0.01257,0c0.47119,-0.00697 1.10816,-0.02985 1.56734,-0.22581c0.23083,-0.0991 0.41282,-0.23698 0.52559,-0.43349c0.11248,-0.19677 0.16191,-0.46194 0.09546,-0.84074v-0.00391c-0.27855,-1.8286 -1.9754,-4.91578 -0.8438,-9.12426c0.64338,-2.39271 2.58922,-4.87196 5.27084,-8.25168v-0.00335l0.00335,-0.00306c1.13551,-1.09168 1.55252,-3.3027 1.72279,-4.73268c-0.10942,1.74874 -0.26098,3.54775 -1.48721,4.92974c-0.00195,0.00251 -0.0042,0.00446 -0.00642,0.00642c-2.67745,3.37527 -4.59031,5.84165 -5.20693,8.13389c-1.10116,4.09681 0.55183,7.04165 0.85051,8.99671c0,0.00111 0,0.00277 0,0.00335c0.07482,0.429 0.01927,0.77484 -0.13368,1.04116c-0.15324,0.26768 -0.39582,0.44742 -0.66881,0.56411c-0.54597,0.23281 -1.21953,0.24118 -1.69405,0.2487h-0.00586h-0.00644c-1.4459,-0.0826 -2.24754,-0.17027 -2.76145,-0.42037c-0.25677,-0.12505 -0.436,-0.30063 -0.56049,-0.51889c-0.12449,-0.21859 -0.19987,-0.47536 -0.27103,-0.7866v-0.00335c-1.04256,-4.91522 0.32911,-9.36404 1.34374,-13.4173c0.18479,-0.75811 0.46868,-1.31024 0.86337,-1.65914c0.33078,-0.29226 0.74164,-0.42066 1.19746,-0.41089c-1.42858,-2.77737 -1.56535,-6.42337 -0.32827,-9.24541c1.11236,-2.53954 3.35964,-4.398 6.71648,-4.28744z" fill="#000000" stroke="none" stroke-width="0.85738"/><path d="M250.04582,154.7916v0.00306c0.14709,0.00309 0.27465,0.07621 0.41087,0.18453c0.13876,0.11024 0.28389,0.26348 0.43603,0.45247c0.30564,0.37792 0.63531,0.90103 0.92672,1.50951c0.46168,1.16429 1.34595,2.8681 0.44967,4.92278c0.2152,-2.25203 -0.04271,-3.27281 -0.72686,-4.78907c-0.2822,-0.5895 -0.5993,-1.09894 -0.88541,-1.45231c-0.14237,-0.17668 -0.27914,-0.31486 -0.39136,-0.40445c-0.11248,-0.08959 -0.20458,-0.12114 -0.22943,-0.12114h-0.00335h-0.00335c-0.04633,-0.00195 -0.19736,0.0628 -0.3729,0.23587c-0.17502,0.17278 -0.37629,0.43821 -0.57951,0.7768c-0.4064,0.67773 -0.8173,1.64856 -1.06404,2.78043c-0.49378,2.26405 -0.34389,5.16395 1.72003,7.72303l0.24899,0.30899l-0.39191,-0.06365l-0.85666,-0.13371c0.37209,2.34583 1.4487,4.18976 2.55377,6.04181l0.13736,0.2289h-0.26771c-0.43154,0.00166 -0.88736,-0.22835 -1.3789,-0.62749c-0.38772,-0.31486 -0.80753,-0.76762 -1.25163,-1.28986c0.27829,1.20192 1.08697,2.34804 1.35409,3.57956l0.08595,0.3855l-0.32127,-0.2264c-0.3478,-0.24645 -0.72656,-0.43821 -1.1274,-0.92028c-0.10021,1.57736 0.29753,3.04921 0.84995,4.50322l0.14347,0.37879l-0.36011,-0.1915c-2.18028,-1.15338 -3.09388,-2.96522 -3.55722,-4.34721c-0.08012,0.14627 -0.12505,0.35115 -0.13371,0.59595c-0.03656,0.55717 -0.05499,0.84243 0.0028,1.49057c-0.75033,-1.57375 -0.67972,-4.38182 -0.46448,-6.05434c0.21435,-1.5157 0.57641,-2.84326 0.93339,-3.71972l-0.71318,0.56411l-0.40139,0.31515l0.15911,-0.48402c0.65484,-1.97735 1.36051,-3.83386 2.53508,-5.12765c-0.08429,-1.06014 0.00446,-2.07922 0.20351,-2.99367c0.25456,-1.1651 0.67353,-2.1655 1.0992,-2.87588c0.21269,-0.35506 0.42848,-0.63811 0.63055,-0.83742c0.19987,-0.19733 0.38605,-0.32573 0.59565,-0.31847c0.00195,0.00055 0.00365,-0.0028 0.00615,-0.0028zM247.56182,162.23745c-0.92308,1.11288 -1.55337,2.64531 -2.12418,4.31537c0.28946,-0.17698 0.90719,-0.64257 1.2868,-0.98842c-0.8215,1.43613 -1.22038,3.34622 -1.42386,4.7497c-0.18645,1.3189 -0.24059,2.75448 -0.07648,4.07308c0.05583,-0.22917 0.14654,-0.43626 0.33774,-0.5669l0.16861,-0.11779l0.06391,0.19762c0.39973,1.28849 1.20222,3.02662 3.14636,4.20399c-0.52614,-1.4682 -0.89263,-2.9867 -0.70061,-4.63358l0.05108,-0.41731l0.22917,0.35031c0.33803,0.51667 0.64006,0.72494 0.95185,0.92672c-0.37434,-1.17623 -1.21784,-2.37764 -1.33397,-3.74537l-0.04131,-0.49994l0.31515,0.39162c0.57527,0.71738 1.09755,1.27927 1.56089,1.65608c0.33078,0.26827 0.6286,0.43434 0.88847,0.5097c-1.08247,-1.81994 -2.13675,-3.68846 -2.46834,-6.08283l-0.02514,-0.20377l0.20071,0.03181l0.70983,0.11137c-1.02693,-1.38336 -1.53999,-2.84854 -1.71667,-4.26149z" fill="#000000" stroke="none" stroke-width="0.85738"/><path d="M255.11317,155.51761l-0.13371,0.34083l-0.26126,0.67828c1.17988,-0.57527 2.64587,-0.71038 4.05716,-0.50326c1.55978,0.22917 3.05035,0.86864 4.00667,1.81854c0.1901,0.19566 0.28445,0.32628 0.34725,0.4346c-0.42542,-0.26823 -0.90774,-0.42011 -1.33146,-0.39302c2.01616,2.10745 2.55406,4.76644 2.56409,7.35374l0.00335,0.21351l-0.20377,-0.07006c-2.03625,-0.62886 -4.77536,-1.538 -5.5603,-2.26431l1.69128,1.69434l0.2769,0.27383l-0.38882,-0.01257c-1.73676,-0.06254 -3.37331,-1.01466 -4.94287,-2.65622v0.73887v0.33468l-0.25485,-0.21995c-0.95072,-0.82511 -1.95531,-1.7379 -2.61129,-3.00962l0.27107,-0.14012c0.56912,1.1037 1.42663,1.93327 2.2897,2.69448v-0.77683v-0.39523l0.26433,0.29308c1.48751,1.63851 3.00123,2.59257 4.57667,2.78658c-1.01912,-1.0071 -2.14151,-2.13258 -3.03642,-3.13578c2.28052,2.02622 4.15265,2.33831 7.31353,3.43807c-0.03881,-2.57024 -0.60627,-5.14383 -2.67856,-7.15609l-0.22021,-0.21354l0.30258,-0.04773c0.19397,-0.03015 0.37124,-0.02653 0.54122,-0.0095c-0.8776,-0.63642 -2.041,-1.0911 -3.26444,-1.27058c-1.5059,-0.22109 -3.07435,-0.03741 -4.22297,0.65289l-0.38215,0.22943l0.16245,-0.41728l0.26436,-0.68499c-0.87733,0.43291 -1.69294,1.01016 -2.48094,1.6625l-0.19762,-0.23558c0.90354,-0.74724 1.84895,-1.41966 2.90157,-1.87884z" fill="#000000" stroke="none" stroke-width="0.85738"/><path d="M262.05267,164.49198c0.5923,2.94038 0.24704,4.87896 -0.22777,6.32176" fill="none" stroke="#000000" stroke-width="1.28606"/><path d="M261.51141,170.42854c0.42512,0.30538 0.70007,0.60181 0.85386,0.89827c0.1538,0.29616 0.18284,0.59204 0.12114,0.85972c-0.12391,0.53565 -0.56971,0.95407 -0.98086,1.284l-0.00642,0.00335l-0.00306,0.00335c-1.28514,0.87004 -2.84547,1.04451 -4.34692,1.02218c-1.85233,-0.02735 -3.25246,-0.30174 -4.9719,-0.90133c1.47439,0.39973 3.84811,0.57306 4.97441,0.59539c1.47045,0.02178 2.95851,-0.15129 4.16242,-0.96159c0.00111,-0.00114 0.00221,-0.00225 0.00335,-0.00365c0.00195,-0.0014 0.00391,-0.00195 0.00642,-0.00306c0.39078,-0.31486 0.76928,-0.70176 0.86252,-1.1051c0.04744,-0.20348 0.03126,-0.41451 -0.09213,-0.65289c-0.3129,-0.61909 -0.51417,-0.81534 -1.10842,-1.36021z" fill="#000000" stroke="none" stroke-width="0.85738"/><path d="M231.61615,173.35244c0.17864,0.00394 0.35727,0.01537 0.53119,0.03464c1.39677,0.15715 2.64785,0.77849 3.24156,1.53159l-0.24202,0.18814c-0.51192,-0.64983 -1.70853,-1.26782 -3.03498,-1.41715c-1.32365,-0.14908 -2.76506,0.15129 -3.82829,1.26752c-0.00195,0.00195 -0.0042,0.00446 -0.00586,0.00615c-0.68304,0.84546 -1.25219,1.74122 -1.85064,2.56379c0.23057,-0.03096 0.46113,-0.06195 0.6917,-0.09236c-0.55157,2.07867 -0.84914,4.32318 -1.50619,6.16572c-0.52198,1.42998 -1.23601,2.49797 -2.38545,3.00959c0.24089,0.05278 0.45778,0.04021 0.67854,-0.05134c0.79555,-0.34669 1.26671,-0.88987 1.76775,-1.57655c-0.35337,1.06714 -1.59328,2.31344 -2.37933,2.70115c-0.5993,0.26908 -1.15921,0.24007 -1.75434,0.2261c-0.00111,0 -0.00221,0 -0.00335,0c-2.15459,-0.03376 -3.88048,-0.8776 -5.02546,-2.41364c-0.03601,1.76886 0.53174,2.97834 1.34986,3.80931c1.22064,1.10621 2.34443,1.48161 3.84561,1.79956c-0.65849,0.05945 -1.18018,0.06642 -1.77502,0.04688c1.65749,0.93232 3.49556,0.80724 4.79883,0.07983c1.29266,-0.72155 2.27883,-2.16996 2.92615,-3.43917l0.14068,-0.27744l0.13397,0.2808l0.29616,0.61437c0.89296,-1.57515 1.26085,-3.90561 1.19385,-5.21308c0,-0.00166 0.00055,-0.00251 0,-0.00361c0,-0.00111 0.00055,-0.0028 0,-0.00361c-0.11444,-1.36357 0.12114,-1.94304 0.24202,-2.3891l0.07618,-0.27634l0.18814,0.21911c0.09881,0.11668 0.18756,0.24538 0.26126,0.38882c0.13957,-0.50632 0.12866,-1.10813 0.19736,-1.8216c0.08735,-0.89964 0.33188,-1.95951 1.26808,-3.14971c0.00111,-0.00166 0.00169,-0.00391 0.00335,-0.00586c0.33299,-0.46393 0.80083,-0.60432 1.20697,-0.58618c0.40725,0.01843 0.7584,0.17668 0.94596,0.29952l-0.16578,0.25485c-0.13596,-0.08907 -0.45947,-0.23336 -0.7933,-0.24873c-0.33358,-0.01534 -0.67438,0.07957 -0.9485,0.46504l-0.00335,0.00335l-0.00361,0.00335c-0.90133,1.14387 -1.12268,2.12279 -1.20667,2.99396c-0.08458,0.87089 -0.01257,1.64326 -0.36958,2.32154l-0.21634,0.41115l-0.07006,-0.46168c-0.02233,-0.15214 -0.08038,-0.28135 -0.15295,-0.40445c-0.1189,0.412 -0.24339,0.89208 -0.15324,1.96173v0.00335v0.00361c0.07592,1.4504 -0.32072,3.98795 -1.37834,5.65018l-0.14963,0.23226l-0.11805,-0.24873l-0.29646,-0.6177c-0.66015,1.23236 -1.60917,2.58613 -2.90437,3.30882c-1.5341,0.85582 -3.74257,0.93649 -5.61444,-0.39527l-0.41367,-0.29614l0.50577,0.01898l0.40448,0.01254c-0.74363,-0.27911 -1.49728,-0.6889 -2.12142,-1.3214c-0.94375,-0.95768 -1.57792,-2.39717 -1.42386,-4.48395l0.03545,-0.45892l0.24844,0.38911c1.08218,1.69349 2.79745,2.60485 5.04167,2.63975c0.60152,0.01367 1.0981,0.03711 1.62734,-0.20068c0.24508,-0.10998 0.50271,-0.285 0.78018,-0.54125c-0.39136,0.13902 -0.79751,0.09936 -1.23545,-0.09881l-0.36929,-0.16861l0.38882,-0.11779c1.28012,-0.38993 2.02596,-1.42663 2.59231,-2.97775c0.54792,-1.50033 0.9122,-3.47828 1.39843,-5.70407c-0.32322,0.04131 -0.64589,0.08543 -0.96829,0.13065c0.84074,-1.06294 1.57515,-2.26685 2.29305,-3.16258l0.00335,-0.00335l0.00335,-0.00586c0.99594,-1.05343 2.31093,-1.42942 3.55976,-1.40237z" fill="#000000" stroke="none" stroke-width="0.85738"/><path d="M253.6159,180.20289c0.57081,1.10536 1.39342,3.01519 0.55773,5.28341l-0.28669,-0.10493c0.86894,-1.37698 0.11837,-4.21991 -0.27103,-5.17847z" fill="#000000" stroke="none" stroke-width="0.85738"/><path d="M249.50431,158.40355c-0.58729,1.19245 -0.40644,2.56747 -0.01202,3.88328c-0.68189,-1.2784 -0.95628,-2.60485 0.01202,-3.88328z" fill="#000000" stroke="none" stroke-width="0.85738"/></g><g stroke="none" stroke-width="0.85738" stroke-linecap="butt"><path d="M234.95235,184.47167c-0.26016,1.03696 -1.8886,0.90549 -2.06893,-0.05779c-0.03321,-1.12098 0.12421,-2.47534 0.58143,-3.46766c0.25039,-0.54262 0.16777,-1.26918 0.2808,-2.15824c0.09604,-0.29952 0.01032,-3.06738 2.25845,-2.22355c0.37434,0.20628 0.79471,0.04408 1.12102,0.07674c2.36478,0.23838 1.19189,2.98479 1.20361,4.11944c-0.05694,0.24369 0.07703,0.35588 0.30339,0.62749c0.88401,1.05649 0.62945,4.20204 -3.67977,3.08356z" fill="#ffffff"/><path d="M234.75945,183.61165c0.04438,0.07061 -0.06781,1.11903 -0.64703,0.98031c-0.15324,-0.03656 -0.40809,-0.02709 -0.496,-0.13566c-0.20071,-0.24675 -0.11558,-0.68554 -0.11558,-0.68554l0.47676,-2.24227c0.0938,-0.45052 0.3199,-0.49825 0.58562,-0.42623c0.36454,0.07872 0.62385,0.28471 0.57557,0.86141c0.08709,1.8484 2.20903,1.41211 2.40973,0.73272c0.01423,-0.27273 0.30229,-0.73441 -1.53074,-1.46488c-0.84077,-0.36428 -2.07981,-0.57977 -1.76916,-2.33466c0.1203,-0.49629 0.25234,-0.98395 0.41425,-1.45261c0.16412,-0.7531 2.02928,-0.25176 2.3246,0.39944c0.0656,-0.35646 0.20543,-0.63335 0.68945,-0.53454c0.20712,0.04216 0.4078,0.4444 0.3813,0.84634c0,0 0.04548,2.63975 -0.25765,2.6378c-0.32908,-0.00225 -0.75476,-0.07732 -0.84103,-0.35562c-0.17473,-0.55743 -0.38602,-1.50815 -0.66907,-2.07366c-0.0603,-0.12564 -0.51612,-0.67161 -0.75671,0.04548c-0.19234,0.54682 -0.29952,1.55171 -0.158,1.60806l2.20932,0.87733c0.55408,0.2152 1.77111,2.12754 0.48512,2.822c-0.7782,0.34363 -2.64086,0.84859 -3.31077,-0.10522z" fill="url(#color-1)"/></g></g></g></g></svg>