<svg version="1.1" xmlns="http://www.w3.org/2000/svg" xmlns:xlink="http://www.w3.org/1999/xlink" width="65.3557" height="92" viewBox="0,0,65.3557,92"><g transform="translate(-207.32215,-134)"><g data-paper-data="{&quot;isPaintingLayer&quot;:true}" fill-rule="nonzero" stroke-miterlimit="10" stroke-dasharray="" stroke-dashoffset="0" style="mix-blend-mode: normal"><path d="M208.82215,224.5v-89h62.3557v89z" fill="#d4bfff" stroke="#ffffff" stroke-width="3" stroke-linecap="butt" stroke-linejoin="miter"/><g stroke-width="0.77378"><path d="M250.08241,189.83252c0.3922,-0.07257 1.48456,-0.40828 1.48456,-0.40828c0,0 0.01807,-0.16748 0.06528,-0.16515c0,0 8.04807,2.2297 8.04807,4.2462c0,2.01655 -3.06091,8.98601 -7.57407,8.5059c-4.54314,-0.48319 -2.78089,-5.22221 -0.23777,-5.93473c1.66624,-0.46745 3.15845,-0.88383 4.0054,-1.11927l0.05262,-0.10717c0.096,-1.15228 -3.93704,-2.30461 -3.93704,-2.30461c0,0 -1.11654,-0.41712 -1.44803,-0.91604c-0.14713,-0.2201 -0.75015,-1.16652 -0.45901,-1.79684" fill="#1b75bb" stroke="#000000" stroke-linecap="butt" stroke-linejoin="miter"/><path d="M246.34283,208.80666c0.01807,-0.79775 0.2339,-1.63626 0.59418,-2.81812c0,0 0.26736,-0.84387 0.42407,-1.51529c0.00382,-0.01688 0.0964,-0.67753 0.86,-0.56306c0.60878,0.09104 1.08814,0.38257 1.08775,1.24793c0,0.03688 -0.04299,0.13944 -0.04299,0.13944c-0.18515,0.58768 -0.45326,1.64123 -0.49322,2.90147c-0.0618,1.94432 0.09064,3.84754 -0.78892,3.88711c-1.33743,0.06031 -1.67086,-1.9132 -1.64088,-3.27947z" fill="#1b75bb" stroke="#000000" stroke-linecap="butt" stroke-linejoin="miter"/><path d="M242.75148,208.80666c0.01847,-0.79775 0.23395,-1.63626 0.59463,-2.81812c0,0 0.26691,-0.84387 0.42402,-1.51529c0.00382,-0.01688 0.0964,-0.67753 0.8596,-0.56306c0.60883,0.09104 1.08819,0.38257 1.0878,1.24793c0,0.03688 -0.04304,0.13944 -0.04304,0.13944c-0.18511,0.58768 -0.45321,1.64123 -0.49277,2.90147c-0.06225,1.94432 0.09064,3.84754 -0.78936,3.88711c-1.33743,0.06031 -1.67041,-1.9132 -1.64088,-3.27947z" fill="#1b75bb" stroke="#000000" stroke-linecap="butt" stroke-linejoin="miter"/><g stroke="#000000" stroke-linecap="butt" stroke-linejoin="miter"><path d="M248.47921,205.15886c0,-0.00074 -0.87271,0.06071 -1.48109,-0.03033c-0.60803,-0.09104 -1.91399,-0.27386 -2.67412,-0.63796c-0.75973,-0.36455 -1.57749,-1.02287 -1.57749,-1.02287c-0.28811,-0.23698 -0.52087,-0.46706 -0.68949,-0.66412c-0.96484,-1.12309 -1.52601,-3.45152 -1.52601,-3.45152c-0.20511,-0.98137 -0.22085,-1.72536 -0.21931,-1.98155c0.08066,-0.01499 0.06989,-0.74092 0.12291,-0.75209c0.36142,-0.07719 0.07913,-0.58957 1.61015,-3.95278c0.84039,-1.84559 0.33452,-2.36144 0.83732,-3.46418c0,0 1.35203,-1.07549 4.35918,-1.07241c0.81771,0.00079 2.44593,0.23276 3.21142,0.63186c0.64725,0.3376 0.54583,0.89455 0.73481,1.13426l0.33611,2.83654l0.03147,0.07416c0.17513,1.17496 0.38907,2.41212 0.61533,3.25525c0.56192,2.08758 2.16671,7.46571 -2.00692,8.74898c-0.58574,0.18054 -1.14806,0.29233 -1.68426,0.34877z" fill="#1b75bb"/><path d="M252.9332,201.05438l-0.02497,0.06954c-0.58842,1.03553 -2.23968,1.29747 -3.1381,1.29747c-1.79451,0 -3.53561,-2.81812 -3.53561,-5.97737c0,-3.15805 1.00902,-5.31593 3.25217,-5.71964c1.02441,-0.18317 1.39045,0.55313 1.82717,0.93838l0.08717,0.07143c0.19434,1.43924 0.47093,3.24373 0.77283,4.35992c0.2961,1.09852 0.88189,3.11273 0.75933,4.96026z" fill="#d0d2d3"/></g><path d="M244.89783,189.85709c0.29118,0.62958 -0.31228,1.57674 -0.45897,1.79605c-0.33263,0.49818 -1.44808,0.91535 -1.44808,0.91535c0,0 -4.03305,1.15228 -3.93699,2.30461l0.05262,0.10792c0.8469,0.23623 2.33876,0.65256 4.0046,1.11927c2.54352,0.71247 4.30537,5.45228 -0.23777,5.93547c-4.51316,0.48011 -7.57327,-6.49049 -7.57327,-8.50704c0,-2.0165 8.04802,-4.24545 8.04802,-4.24545c0.04726,-0.00154 0.06533,0.16441 0.06533,0.16441c0,0 1.09197,0.33571 1.48451,0.40943" fill="#1b75bb" stroke="#000000" stroke-linecap="butt" stroke-linejoin="miter"/><g><path d="M263.56431,175.71341c0.04532,0.16172 1.12542,4.11297 -1.60434,7.77228c-1.84907,2.47666 -5.07051,5.64166 -13.30255,6.35185c-4.03076,0.34683 -7.61859,-0.69292 -10.19785,-2.28192c0.03802,0.02343 0.07376,0.048 0.11218,0.07103l-0.03688,-0.02229c-2.39639,-1.08199 -5.43501,-2.75593 -7.4527,-5.55792c0,0 -1.08586,2.26544 -5.95429,2.3599c-6.15215,0.12137 -8.63575,-3.28905 -8.95379,-5.85982c-0.323,-2.60765 0.47361,-5.59669 5.67278,-6.47858c4.35262,-0.73635 6.71868,0.57845 7.37318,1.02515l0.05073,0.05798c0.47971,-1.48377 1.2794,-2.1671 1.2794,-2.1671l-0.06567,-0.02343c-1.83214,-0.6875 -4.24277,-1.78568 -7.19264,-3.54023c-6.17518,-3.67391 -6.11413,-10.15482 -4.40604,-12.48514c1.76805,-2.4091 7.0056,-5.4358 14.40454,-1.31554c4.16365,2.31687 6.27079,5.88554 7.31823,8.56l0.22124,-0.08756c0.28538,-0.16441 0.59652,-0.32648 0.92955,-0.47971l0.04338,-0.07605c-1.62281,-3.8126 -4.07261,-11.65209 2.90226,-12.25704c6.6334,-0.57537 6.0626,7.41775 5.52759,10.81626l0.05222,0.00809c0.85692,0.06026 1.7273,0.1859 2.59728,0.39021c-0.01921,-0.03996 -1.00862,-2.11637 0.26195,-5.14115c0.99562,-2.3676 5.45502,-8.04386 9.07745,-5.02787c3.82138,3.18263 1.74691,6.78242 -0.24199,8.99023c-1.72308,1.91166 -3.70503,2.69293 -4.6042,3.03783l0.02537,0.01613c0.22124,0.13904 0.44249,0.28384 0.661,0.43827c6.08226,4.2804 5.56065,13.14236 5.56065,13.14236l-0.01345,-0.06299c-0.02303,-0.09908 -0.03956,-0.15671 -0.04458,-0.17324zM256.46196,161.82705c0.36758,0.19399 0.72707,0.40372 1.07663,0.62764M250.21569,160.30948c-0.07833,0.42635 -0.16783,0.85042 -0.26577,1.27216M242.77188,163.59044c-0.36569,-0.69138 -0.69331,-1.4035 -0.9979,-2.12367M228.92891,175.90774c-0.03882,-0.85231 0.0407,-1.71266 0.27426,-2.53463M224.168,171.85013M223.39174,184.29421" fill="#1b75bb" stroke="#000000" stroke-linecap="round" stroke-linejoin="round"/><path d="M223.42321,184.34335c-4.9134,-0.47629 -6.96216,-3.47763 -7.24913,-5.79683c-0.323,-2.60765 0.47361,-5.59669 5.67278,-6.47858c0.7563,-0.12832 1.4527,-0.19439 2.08912,-0.21395l0.04919,0.00308c-2.07264,4.00843 -2.26852,8.72287 -0.59344,12.43674l0.03147,0.04954z" fill="#f1f1f2" stroke="#000000" stroke-linecap="butt" stroke-linejoin="miter"/><path d="M222.33159,166.79193c-5.20339,-3.7442 -5.06013,-9.65435 -3.44611,-11.85715c1.68387,-2.29537 6.52162,-5.15117 13.37512,-1.85021l-0.06875,0.02264c-3.93357,1.23145 -7.33669,4.3292 -8.93419,8.65263c-0.61225,1.66009 -0.90418,3.35626 -0.9088,5.01367l-0.01727,0.01842z" fill="#f1f1f2" stroke="#000000" stroke-linecap="butt" stroke-linejoin="miter"/><path d="M240.07855,155.41603c-0.2896,-3.014 0.59036,-5.788 4.62723,-6.13751c4.07301,-0.35259 5.43044,2.52431 5.74689,5.58482l-0.03107,-0.03152c-3.40392,-1.32051 -7.12235,-1.03706 -10.32652,0.5366l-0.01653,0.0476z" fill="#f1f1f2" stroke="#000000" stroke-linecap="butt" stroke-linejoin="miter"/><path d="M258.36399,149.80743c1.26714,-0.52891 2.61227,-0.52007 3.85712,0.51739c2.44752,2.03993 2.4767,4.24967 1.65741,6.15557l-0.0415,0.00308c-0.99671,-2.75131 -2.87228,-5.13196 -5.47879,-6.66224l0.00576,-0.0138z" fill="#f1f1f2" stroke="#000000" stroke-linecap="butt" stroke-linejoin="miter"/><path d="M258.22957,170.32526c3.34971,2.43943 4.53162,2.5877 5.33285,5.38085c0,0 1.18494,4.04342 -1.60211,7.77992c-1.84941,2.4767 -5.07051,5.64131 -13.3025,6.3519c-8.2309,0.70825 -14.62424,-4.35878 -14.32388,-8.0999c0.3991,-4.97987 4.00848,-4.32959 10.91882,-8.59038c6.90955,-4.25856 7.0052,-9.3171 7.0052,-9.3171c0,0 3.64318,4.79585 5.97161,6.49471z" fill="#e6e7e8" stroke="#000000" stroke-linecap="butt" stroke-linejoin="miter"/><g stroke="none" stroke-linecap="butt" stroke-linejoin="miter"><path d="M246.78299,177.60089c0.05535,0.26234 -0.11139,0.52161 -0.37408,0.57805c-0.26388,0.05763 -0.52315,-0.11675 -0.5777,-0.37259c-0.02839,-0.12827 -0.00576,-0.25773 0.06413,-0.36604c0.07108,-0.10906 0.1794,-0.18511 0.30886,-0.21275c0.03495,-0.0073 0.07029,-0.01157 0.10598,-0.01157c0.22511,0 0.42407,0.16172 0.47281,0.3849z" fill="#ffffff"/><path d="M247.53125,177.44031c0.144,0.67371 -0.28617,1.34051 -0.96102,1.48685c-0.08761,0.01886 -0.17632,0.02844 -0.26502,0.02844c-0.58614,0 -1.10045,-0.41598 -1.22182,-0.98673c-0.07223,-0.32687 -0.01271,-0.66184 0.16823,-0.94186c0.18168,-0.2815 0.4617,-0.4755 0.78892,-0.54653c0.65757,-0.14405 1.34706,0.29764 1.49072,0.95983zM245.8312,177.80675c0.05416,0.25584 0.31382,0.42983 0.57731,0.37259c0.26309,-0.05649 0.42983,-0.31576 0.37448,-0.5781c-0.04875,-0.22313 -0.24735,-0.38485 -0.47281,-0.38485c-0.03534,0 -0.07069,0.00422 -0.10598,0.01152c-0.12946,0.02765 -0.23777,0.10335 -0.30886,0.2128c-0.06989,0.10831 -0.09253,0.23777 -0.06413,0.36604z" fill="#231f20"/></g><g stroke="none" stroke-linecap="butt" stroke-linejoin="miter"><path d="M258.66436,176.86876c0.05495,0.262 -0.11139,0.52161 -0.37413,0.5785c-0.26349,0.05723 -0.52275,-0.1168 -0.57765,-0.37299c-0.02805,-0.12827 -0.00576,-0.25773 0.06413,-0.36604c0.07143,-0.10906 0.17974,-0.18515 0.30881,-0.2128c0.03534,-0.00764 0.07069,-0.01152 0.10603,-0.01152c0.22546,0 0.42442,0.16172 0.47281,0.38485z" fill="#ffffff"/><path d="M259.41257,176.70748c0.14445,0.67445 -0.28612,1.34125 -0.96102,1.48719c-0.08756,0.01847 -0.17627,0.02805 -0.26502,0.02805c-0.58614,0 -1.10006,-0.41558 -1.22182,-0.98673c-0.07183,-0.32687 -0.01266,-0.66179 0.16823,-0.94181c0.18168,-0.28155 0.4617,-0.47589 0.78936,-0.54658c0.65757,-0.14405 1.34701,0.29769 1.49027,0.95988zM257.71218,177.07387c0.05495,0.25624 0.31456,0.43062 0.57731,0.37259c0.26309,-0.05644 0.42983,-0.3161 0.37448,-0.57805c-0.0484,-0.22318 -0.24696,-0.3849 -0.47281,-0.3849c-0.03495,0 -0.07029,0.00387 -0.10598,0.01157c-0.12906,0.02765 -0.23738,0.1037 -0.30886,0.21275c-0.06989,0.10831 -0.09218,0.23777 -0.06413,0.36604z" fill="#231f20"/></g><path d="M246.76497,181.43573c0,0 2.11409,-1.36086 6.06915,-1.93856c3.9566,-0.57765 5.79301,0.82927 5.79301,0.82927" fill="none" stroke="#231f20" stroke-linecap="round" stroke-linejoin="miter"/><path d="M257.21975,177.14535c-0.26269,0 -0.51466,-0.15095 -0.63106,-0.4064c-0.15671,-0.34762 -0.00308,-0.75784 0.34494,-0.9149l2.20855,-0.99944c0.34643,-0.15825 0.75784,-0.00308 0.9153,0.34415c0.15671,0.34797 0.00308,0.75784 -0.34489,0.9153l-2.2086,0.99944c-0.09218,0.04224 -0.18898,0.06185 -0.28423,0.06185v0z" fill="#231f20" stroke="none" stroke-linecap="butt" stroke-linejoin="miter"/><path d="M247.17558,177.83827c-0.08647,0 -0.1717,-0.01579 -0.25505,-0.04919l-2.25045,-0.89415c-0.35492,-0.14098 -0.52816,-0.54315 -0.38719,-0.89803c0.14098,-0.35532 0.54618,-0.52737 0.89728,-0.38758l2.2504,0.8942c0.35492,0.14098 0.52816,0.5431 0.38719,0.89803c-0.10752,0.27118 -0.36798,0.43673 -0.64218,0.43673v0z" fill="#231f20" stroke="none" stroke-linecap="butt" stroke-linejoin="miter"/></g></g></g></g></svg>