<svg version="1.1" xmlns="http://www.w3.org/2000/svg" xmlns:xlink="http://www.w3.org/1999/xlink" width="65.3557" height="92" viewBox="0,0,65.3557,92"><defs><linearGradient x1="235.23859" y1="168.74289" x2="242.87101" y2="168.74289" gradientUnits="userSpaceOnUse" id="color-1"><stop offset="0.1517" stop-color="#00e1ff"/><stop offset="0.4775" stop-color="#ffff00"/><stop offset="0.6798" stop-color="#ff9a0e"/><stop offset="1" stop-color="#ff0000"/></linearGradient><linearGradient x1="218.01795" y1="184.46493" x2="229.78527" y2="184.46493" gradientUnits="userSpaceOnUse" id="color-2"><stop offset="0.1517" stop-color="#00e1ff"/><stop offset="0.4775" stop-color="#ffff00"/><stop offset="0.6798" stop-color="#ff9a0e"/><stop offset="1" stop-color="#ff0000"/></linearGradient></defs><g transform="translate(-207.32215,-134)"><g data-paper-data="{&quot;isPaintingLayer&quot;:true}" fill-rule="nonzero" stroke-linecap="butt" stroke-linejoin="miter" stroke-miterlimit="10" stroke-dasharray="" stroke-dashoffset="0" style="mix-blend-mode: normal"><path d="M208.82215,224.5v-89h62.3557v89z" fill="#d4bfff" stroke="#ffffff" stroke-width="3"/><g stroke="none" stroke-width="1"><g><g><path d="M223.29271,199.61463v0c0,0 0.94371,-1.0688 2.73936,0.09659l-0.20133,0.20244l0.1954,0.51664c0.2487,0.43374 0.52515,0.85526 0.8264,1.26198c-0.87969,0.58473 -3.20307,0.07291 -3.8807,-0.72277c0.03109,-0.26017 0.13212,-0.49813 0.24129,-0.73351c0,0 0.22723,-0.50849 0.25018,-0.5703c0.01073,-0.02961 -0.07661,-0.0433 -0.17061,-0.05107z" fill="#808080"/><path d="M222.62175,201.45653c-0.6458,-0.52774 0.01073,-0.91707 0.16728,-1.36413l0.30088,-0.48259c0,0 0.10991,-0.00074 0.21243,0.00703c0.09363,0.00703 0.18097,0.02183 0.17024,0.0507c-0.02332,0.06217 -0.25018,0.5703 -0.25018,0.5703c-0.10917,0.23574 -0.21021,0.47334 -0.24129,0.73388c0.67762,0.79605 3.00101,1.30713 3.8807,0.72277c-0.30125,-0.40635 -0.5777,-0.82825 -0.8264,-1.26198l-0.1954,-0.51664l0.20133,-0.20244l0.12028,-0.12176c0,0 0.20244,0.13915 0.48074,0.5529c0.0507,0.07957 0.09918,0.15988 0.15284,0.24055c0.2387,0.35824 0.69095,0.80012 0.85933,1.16428c0.48666,1.04586 -3.22491,1.38411 -5.03276,-0.09289z" fill="#000000"/></g><g><path d="M227.66672,187.22349c0.20688,-1.8815 1.54103,-2.80412 2.12021,-3.5343c0.20762,-0.1114 0.40672,-0.18578 0.57807,-0.19207c1.43999,-0.05218 3.0939,1.92813 3.26747,2.80486c0.08512,0.42856 0.13656,0.80752 0.16173,1.15096c-0.57659,3.42327 -4.33738,5.35437 -4.33738,5.35437c-3.00212,1.53622 -4.65232,4.68193 -3.54503,6.89651c0.22279,0.44558 -1.42704,0.04626 -2.17868,-0.26609c-0.06328,-0.03923 -0.70723,-0.29792 -0.66393,-0.60916c1.0725,-1.18834 1.68462,-2.33042 1.99919,-3.84332c0.10288,-0.49702 0.19688,-1.2779 0.59917,-1.6465c0.85859,-0.78643 1.52548,-1.5129 1.99956,-2.56209c0.50998,-1.12986 -0.12768,-2.39111 -0.00037,-3.55317z" fill="#ffffff"/><path d="M234.28086,187.98993c-0.09252,0.30088 -0.98701,3.62275 -5.0039,5.70891c-1.91962,0.92262 -3.4625,3.30781 -3.07539,5.31181c0.0718,0.37119 0.23463,0.70464 0.42967,1.01329c-0.01776,0.09918 0.02961,0.2561 -0.06254,0.29163c-0.7076,0.27275 -2.38815,0.1188 -3.7223,-0.56438c-0.30976,-0.15877 -0.69317,-0.58103 -0.69317,-0.89264c0,-0.56882 2.64721,-2.06136 2.56542,-5.67264c-0.00333,-0.14396 0.0718,-0.25684 0.24426,-0.36712c4.13235,-2.64055 1.30565,-3.7978 2.10503,-6.17521c0.282,-0.84046 1.76345,-3.03505 2.73714,-3.3722l0.1299,0.20984c-0.03997,0.06773 -0.09178,0.1373 -0.14766,0.20762c-0.57918,0.73017 -1.91333,1.65279 -2.12021,3.5343c-0.12768,1.16243 0.50998,2.42368 0,3.55354c-0.47408,1.04919 -1.14097,1.77566 -1.99956,2.56209c-0.40228,0.3686 -0.49628,1.14948 -0.59917,1.6465c-0.31457,1.5129 -0.92669,2.65498 -1.99919,3.84332c-0.0433,0.31087 0.60065,0.56993 0.66393,0.60916c0.75164,0.31235 2.40147,0.71167 2.17868,0.26609c-1.10692,-2.21495 0.54291,-5.36066 3.54503,-6.89651c0,0 3.76079,-1.9311 4.33738,-5.35437c0.00629,-0.03701 0.01406,-0.07291 0.01961,-0.11028c0,0 0.25832,-0.41597 0.46631,-0.11547c0.20836,0.30088 0.09326,0.46186 0.00074,0.76274z" fill="#000000"/></g></g><g><g><path d="M258.02726,177.6276v0c0,0 0.36601,-1.37819 2.49362,-1.13912l-0.08956,0.27127l0.40598,0.37415c0.41671,0.27682 0.85267,0.53033 1.30417,0.75904c-0.52552,0.9167 -2.83262,1.49921 -3.79484,1.09027c-0.08919,-0.24685 -0.1051,-0.50479 -0.11288,-0.76422c0,0 -0.02443,-0.55661 -0.03146,-0.62211c-0.00333,-0.03146 -0.08771,-0.00518 -0.17505,0.03072z" fill="#808080"/><path d="M258.24968,179.57461c-0.81381,-0.18319 -0.4008,-0.82529 -0.46038,-1.29492l0.05329,-0.56623c0,0 0.09807,-0.04996 0.19281,-0.08919c0.08771,-0.03553 0.17172,-0.06217 0.17542,-0.03072c0.00703,0.0655 0.03146,0.62211 0.03146,0.62211c0.00814,0.25943 0.02369,0.51738 0.11251,0.76422c0.96259,0.40894 3.26932,-0.17357 3.79484,-1.09027c-0.45076,-0.22871 -0.88709,-0.48222 -1.3038,-0.75904l-0.40598,-0.37415l0.08919,-0.27127l0.05366,-0.16247c0,0 0.24314,0.03368 0.67762,0.27941c0.08105,0.04848 0.15988,0.09881 0.24388,0.14655c0.37378,0.21428 0.97591,0.40709 1.28974,0.65764c0.903,0.71759 -2.26528,2.68125 -4.54425,2.16832z" fill="#000000"/></g><g><path d="M248.50945,179.67823c0.02221,0.06291 0.04589,0.15729 0.07476,0.25647c-0.57363,-0.12583 -1.11654,-0.39229 -1.54991,-0.78643c-0.80789,-0.73499 -0.08216,-3.08502 0.43707,-3.98173c0.11954,-0.20651 0.28644,-0.37786 0.48037,-0.52478c0,0.00074 -0.00111,0.00185 -0.00111,0.00222c0.05699,0.18171 0.1843,0.59583 0.46964,0.52885c0.16247,-0.03849 3.38071,-1.71793 3.68492,-1.88854c1.38707,-0.77718 2.01844,-2.57874 3.79928,-2.71456c0.27719,-0.02072 1.03401,-0.15432 1.14874,0.18319c0.06736,0.19503 0.00888,0.40894 0.03331,0.61212c0.08401,0.67466 0.32678,1.32823 0.61582,1.94997c0.59731,1.27864 3.14682,3.04764 2.73936,3.36036c-0.51812,0.39747 -3.22935,0.99478 -3.33852,0.51294c-0.23796,-1.04956 -0.29163,-3.68529 -1.27383,-4.37217c-0.0396,-0.03146 -0.08068,-0.05958 -0.12472,-0.08068c0.00037,-0.00037 0.00037,-0.00037 0,0c-4.25818,0.33826 -3.81075,5.10086 -7.19516,6.94277z" fill="#ffffff"/><path d="M257.78041,177.90923c0.00148,-0.00666 0.00444,-0.01258 0.00592,-0.01924c-0.31568,0.02369 -0.89301,0.1447 -1.1332,-0.10695c-0.24351,-0.25573 -0.14248,-0.92188 -0.14951,-1.25088c-0.01998,-0.90967 -0.20762,-1.87891 -0.48518,-2.77304c-0.10288,-0.22131 -0.3068,-0.46371 -0.6865,-0.30939c-0.03368,0.01813 -0.06773,0.03516 -0.10325,0.05181c-0.0111,0.00629 -0.02146,0.00962 -0.03294,0.01665l-0.00037,-0.00148c-0.31494,0.14322 -0.68243,0.24611 -0.89042,0.34714c-0.7398,0.35972 -1.20129,0.77977 -1.52585,1.22054c-0.40561,0.55179 -0.59657,1.13542 -0.84342,1.67278c-0.12546,0.27238 -0.81418,1.26124 -1.50957,2.1376c-0.59065,0.74424 -1.18649,1.40743 -1.44592,1.47811c-0.22168,0.06032 -0.32567,-0.20244 -0.39488,-0.43781c-0.02887,-0.09918 -0.05218,-0.19355 -0.07476,-0.25647c3.3833,-1.84228 2.93587,-6.60488 7.19479,-6.94314c0.00037,-0.00037 0.00037,-0.00037 0.00037,-0.00037c0.04404,0.02146 0.08364,0.05255 0.12435,0.08105c0.9822,0.68687 1.03549,3.32261 1.27383,4.37217c0.1088,0.48185 2.82041,-0.1151 3.33852,-0.51294c0.40746,-0.31272 -2.14204,-2.08209 -2.73936,-3.36036c-0.28904,-0.62174 -0.53144,-1.27531 -0.61582,-1.94997c-0.0248,-0.20318 0.03405,-0.41708 -0.03331,-0.61212c-0.11473,-0.33752 -0.87192,-0.20392 -1.14874,-0.18319c-1.78121,0.13582 -2.4122,1.93739 -3.79928,2.71456c-0.30421,0.17061 -3.52245,1.85005 -3.68492,1.88854c-0.28533,0.06699 -0.41301,-0.34714 -0.46964,-0.52885c0,-0.00074 0.00111,-0.00148 0.00111,-0.00222c0.05995,-0.21243 0.22686,-0.19799 0.47741,-0.29718c0.31642,-0.12509 1.81896,-0.91744 2.15093,-1.03438c1.9644,-0.69021 2.25159,-1.28678 3.47471,-2.66423c0.85045,-0.95778 2.90553,-1.56767 3.68196,-0.18282c0.17357,0.3105 0.26461,1.25051 0.39895,1.67722c0.55883,1.76456 1.54584,2.93698 2.89738,4.00911c0.76385,1.17798 -3.03098,1.71016 -3.2534,1.75975z" fill="#000000"/></g></g><g><path d="M241.63182,166.52435c-0.14581,0.80641 -0.28867,1.77936 -0.4119,2.96178c-0.0185,0.17505 -0.03738,0.34492 -0.05699,0.5096c-1.84191,0.21687 -1.89557,2.87555 -3.5998,3.10278c1.91259,-0.00962 2.202,-2.32523 3.51616,-2.46772c-0.12287,0.87192 -0.26498,1.57619 -0.41375,2.14833c-1.25902,-0.09992 -1.62985,1.21498 -2.13094,2.08912c-0.20947,0.2524 -0.28126,0.329 -0.91152,0.55179c1.40077,0.15321 1.54658,-1.48255 2.50065,-2.06877c0.1262,-0.09992 0.30088,-0.17357 0.45483,-0.25573c-0.58658,2.02843 -1.24015,2.12465 -1.24015,2.12465c-0.9748,0.1917 -2.01029,1.90741 -2.83225,1.46405c0.19873,-0.05403 0.33641,-0.15988 0.4367,-0.29718c0.01369,-0.00111 0.02924,-0.00407 0.04182,-0.00407c0,-0.02109 -0.00074,-0.03923 -0.00074,-0.05958c0.33345,-0.54476 0.18911,-1.50365 0.66319,-1.99327c0.04811,-0.03072 0.09437,-0.06402 0.13878,-0.09918c0.25277,-0.11621 0.40154,-0.30125 0.35676,-0.54439c-0.93409,0.5022 -1.91925,0.4256 -2.65461,-0.67429c1.32638,0.4985 1.89779,0.10917 2.27453,-0.53255c0.2994,-0.51109 -0.20984,-1.07731 -0.29422,-1.58803c-0.04626,-0.27867 0.15988,-0.44965 0.36305,-0.6247c1.17724,-0.05033 2.29267,-0.7039 2.05026,-1.49588c-1.7516,1.90704 -4.90731,0.76977 -3.00841,-1.11728c0.28422,1.1158 1.31565,0.85156 1.60912,0.46186c0.53995,-0.71648 -0.53662,-1.99771 -0.18763,-2.63907c0.17172,-0.31568 0.75978,-0.83639 1.53548,-1.21794c0,0 -0.21132,-0.25388 -1.36931,-0.46594c-0.20799,-0.03812 -0.42449,-0.14951 -0.7979,-0.28385c-1.85079,-0.90115 -2.02029,-2.78044 0.54106,-2.78044c-1.3001,0.63247 -0.95,1.91814 0.17986,2.20866c1.26532,0.32493 1.58433,-0.856 2.68199,-0.99145c0.43152,-0.05329 1.05067,0.06995 1.36561,0.36601c0.04367,0.03997 0.06699,0.13249 0.11436,0.17653c0.19762,0.35565 -0.32567,0.99589 -0.84305,3.65346c-2.86815,-0.37156 -1.28567,2.29896 -3.98506,3.06429c3.05467,-0.06699 1.60949,-2.76341 3.914,-2.68162z" fill="url(#color-1)"/><path d="M242.87086,163.24134c-0.12509,0.87895 -0.86526,2.33079 -1.16576,5.96501c-0.30051,3.63422 -0.69206,6.41466 -2.61279,7.08303c-0.91374,0.03738 -1.44481,0.95667 -2.66867,0.86822c-0.46445,-0.03368 -0.8597,-0.56993 -0.83306,-1.17427c0.1954,0.16765 0.65246,0.37489 0.91596,0.22871c0.40043,-0.22168 0.12731,-1.32897 0.68243,-1.84487c-1.05585,0.06069 -2.56505,-0.57992 -2.2601,-2.28193c0.1732,0.23611 1.86226,1.36265 2.35114,0.03997c0.18985,-0.51331 -0.91263,-1.11765 -0.23574,-1.90482c0.00407,-0.00444 0.00888,-0.00851 0.01258,-0.01295c-0.07217,-0.01517 -0.14396,-0.03109 -0.21391,-0.05218c-0.59139,-0.17801 -1.36228,-1.04549 -1.20906,-1.59654c0.1991,-0.71722 1.0651,-1.58137 1.88261,-1.69276c-0.20651,0.44447 -0.30606,1.51808 0.28126,1.22572c1.15762,-0.57622 -0.82159,-1.8197 0.03516,-2.68977c0.77718,-1.00848 1.22202,-1.09619 1.22202,-1.09619l-1.78898,-0.54624c-0.02702,-0.00592 -0.05292,-0.01591 -0.0792,-0.02406l-0.09437,-0.02887l0.00518,-0.00222c-1.02587,-0.38896 -1.63244,-2.02732 -0.94556,-2.82596c0.40672,-0.4726 1.1047,-0.76311 1.76567,-0.62507c0.41893,0.08734 0.92558,0.36083 1.14985,0.70131c-0.32604,0.13952 -0.85415,0.19133 -0.99923,0.5492c-0.20688,0.50886 0.28274,1.08175 0.88302,0.8845c0.9278,-0.30606 1.22202,-1.2383 2.51546,-1.06732c0.49369,0.0655 1.33674,0.57881 1.35599,0.94038c0.01073,0.03405 0.02072,0.07698 0.03035,0.11843c0.00222,0.0111 0.00518,0.01998 0.00777,0.03183c0.04108,0.1954 0.0618,0.46519 0.00999,0.82973zM241.21881,169.48687c0.12324,-1.18242 0.26572,-2.15537 0.4119,-2.96178c-2.30414,-0.08179 -0.85896,2.61427 -3.91363,2.68162c2.69939,-0.76533 1.11691,-3.43548 3.98506,-3.06429c0.51738,-2.65757 1.0403,-3.29781 0.84305,-3.65346c-0.04737,-0.04404 -0.07106,-0.13656 -0.11436,-0.17653c-0.31494,-0.29607 -0.93409,-0.4193 -1.36561,-0.36601c-1.09767,0.13545 -1.41668,1.31639 -2.68199,0.99145c-1.12986,-0.29052 -1.47996,-1.57619 -0.17986,-2.20866c-2.56135,0 -2.39185,1.87891 -0.54106,2.78044c0.37341,0.13434 0.58991,0.24574 0.7979,0.28385c1.15799,0.21206 1.36931,0.46594 1.36931,0.46594c-0.77569,0.38156 -1.36376,0.90189 -1.53548,1.21794c-0.34899,0.64135 0.72758,1.92258 0.18763,2.63907c-0.29348,0.3897 -1.3249,0.65394 -1.60912,-0.46186c-1.8989,1.88706 1.2568,3.02432 3.00841,1.11728c0.2424,0.79235 -0.8734,1.44555 -2.05026,1.49588c-0.20318,0.17468 -0.40931,0.34603 -0.36305,0.6247c0.08438,0.51072 0.59361,1.07694 0.29422,1.58803c-0.37674,0.64172 -0.94815,1.03105 -2.27453,0.53255c0.73536,1.09989 1.72052,1.1765 2.65461,0.67429c0.04478,0.24314 -0.10399,0.42819 -0.35676,0.54439c-0.02332,0.01073 -0.04626,0.02183 -0.07143,0.03146c-0.0248,0.02072 -0.04478,0.04478 -0.06699,0.06773c-0.47371,0.48962 -0.32974,1.44851 -0.66319,1.99327c-0.01295,0.02146 -0.02628,0.04293 -0.04108,0.06328c-0.10066,0.1373 -0.23796,0.24314 -0.4367,0.29718c0.82196,0.44336 1.85745,-1.27235 2.83225,-1.46405c0,0 0.65357,-0.09622 1.24015,-2.12465c-0.15395,0.08179 -0.32863,0.15544 -0.45483,0.25573c-0.95408,0.58621 -1.09989,2.22198 -2.50065,2.06877c0.63025,-0.22279 0.70205,-0.2994 0.91152,-0.55179c0.50109,-0.87414 0.87192,-2.18904 2.13094,-2.08912c0.14877,-0.57252 0.29089,-1.27679 0.41375,-2.14833c-1.31417,0.14248 -1.60357,2.45809 -3.51616,2.46772c1.70423,-0.22723 1.7579,-2.88591 3.5998,-3.10278c0.01961,-0.16469 0.03849,-0.33456 0.05625,-0.50923z" fill="#000000"/></g><g><path d="M249.02424,176.63947c0.54994,3.86071 -2.0288,7.24808 -2.0288,7.24808c-0.0148,0.04108 -0.22945,0.40117 -0.25388,0.43744c-1.03586,1.52955 -5.56383,2.3282 -7.4298,2.71493c-0.68724,0.14174 -1.71016,0.54143 -2.34892,0.81085v0.02109c-7.97641,2.62093 -7.50233,-2.24826 -7.45718,-2.6646c0.08438,-0.78014 0.22464,-1.87484 0.45668,-2.45402c0.82307,-2.05322 4.27557,-2.51472 6.18483,-3.61312c2.83854,-1.63318 4.60125,-3.9573 5.08051,-7.03011c0.30828,-1.97995 0.34492,-4.00356 0.59361,-5.99276c0.00629,-0.04959 0.03886,-0.34492 0.06624,-0.63506l0.03405,-0.60805c0,0 0.19985,-0.55142 1.3101,-0.29422c1.11025,0.25721 2.03176,0.15358 2.68125,4.04501c0.16654,2.95882 2.72789,5.14786 3.11129,8.01453z" fill="#ffffff"/><path d="M249.46094,175.43004c0.0396,0.15803 1.53067,4.3285 -1.7257,9.0367c-0.05477,0.09178 -0.12176,0.18467 -0.19429,0.27719c-0.00333,0.00518 -0.00666,0.00999 -0.01036,0.01517l-0.00074,-0.00111c-0.28311,0.3575 -0.66319,0.70242 -0.90411,0.89338c-1.82562,1.44185 -4.66897,1.21276 -6.88022,1.90593c-0.61286,0.19244 -1.5773,0.7002 -2.33782,0.86414c-0.00185,0.00185 -0.00296,0.00333 -0.00481,0.00481c0,0 -4.28631,1.78269 -6.41429,0.33011c-2.12798,-1.45258 -1.76493,-2.80412 -1.63836,-3.83629c0.10917,-0.88857 -0.07069,-2.01362 0.9996,-3.43882v0.00037c1.54954,-2.32449 6.67334,-2.66349 8.44678,-5.42246c0.87007,-1.35377 1.78306,-3.21936 1.91925,-4.84217c0.12879,-1.53807 0.46001,-5.37472 0.4626,-5.50166c-0.06439,-2.31339 1.93739,-1.89631 3.53356,-1.20388c1.59617,0.69243 1.85079,4.0476 1.85079,4.0476c0.07883,2.46994 2.26787,4.55166 2.89294,6.86579c0.00148,0.00222 0.0037,0.00148 0.00518,0.00518zM249.02461,176.63984c-0.38341,-2.86667 -2.94475,-5.05571 -3.11129,-8.01453c-0.6495,-3.89143 -1.571,-3.7878 -2.68125,-4.04501c-1.11025,-0.25721 -1.3101,0.29422 -1.3101,0.29422l-0.03405,0.60805c-0.02776,0.29015 -0.05995,0.58547 -0.06624,0.63506c-0.2487,1.9892 -0.28533,4.01281 -0.59361,5.99276c-0.47963,3.0728 -2.24234,5.39693 -5.08088,7.03011c-1.90926,1.09841 -5.36177,1.5599 -6.18483,3.61312c-0.23241,0.57955 -0.3723,1.67426 -0.45668,2.45402c-0.04478,0.41634 -0.51923,5.28553 7.45718,2.6646v-0.02109c0.63876,-0.26905 1.66167,-0.66874 2.34892,-0.81085c1.86596,-0.38674 6.39393,-1.18538 7.4298,-2.71493c0.0248,-0.03627 0.23907,-0.39673 0.25388,-0.43744c0,0 2.57874,-3.38737 2.02917,-7.24808z" fill="#000000"/></g><g><g><path d="M232.15399,201.21857v0c0,0 0.86303,-1.33452 3.03542,-0.34751l-0.18837,0.25647l0.30088,0.53662c0.34603,0.43707 0.72092,0.85637 1.12024,1.25421c-0.87303,0.7905 -3.51875,0.61212 -4.3977,-0.15284c-0.00888,-0.29237 0.06291,-0.57141 0.14433,-0.84897c0,0 0.1658,-0.59842 0.18097,-0.67022c0.0074,-0.03442 -0.09141,-0.03553 -0.19577,-0.02776z" fill="#808080"/><path d="M231.71766,203.35876c-0.79938,-0.47482 -0.14026,-1.01292 -0.04145,-1.53104l0.25166,-0.58177c0,0 0.12102,-0.01924 0.23537,-0.02776c0.10473,-0.00777 0.20355,-0.00666 0.19614,0.02776c-0.01517,0.07217 -0.18097,0.67022 -0.18097,0.67022c-0.08142,0.27756 -0.15321,0.55661 -0.14433,0.84897c0.87895,0.76496 3.52504,0.94334 4.3977,0.15284c-0.39932,-0.39821 -0.77384,-0.81714 -1.12024,-1.25421l-0.30088,-0.53662l0.18837,-0.25647l0.11288,-0.15395c0,0 0.24611,0.11991 0.62174,0.52959c0.06884,0.07957 0.13582,0.15988 0.20799,0.23981c0.32234,0.35565 0.89412,0.76755 1.14023,1.14134c0.70982,1.07213 -3.32483,2.06099 -5.5642,0.73128z" fill="#000000"/></g><g><path d="M229.50937,183.798c0.36601,-0.38637 0.91263,-0.63284 1.71275,-0.63247c1.11987,0.00074 2.40887,0.43818 3.34222,0.96814c0.91226,0.51775 1.58803,1.42001 2.15426,2.27712c0.16358,0.24796 0.24166,0.50368 0.27571,0.76644c-0.05181,-0.04219 -0.14433,-0.07106 -0.19799,-0.06032c-0.42967,1.14615 -0.50886,2.20755 -1.13283,3.32372c-0.98109,1.75346 -3.30855,2.92995 -3.71971,4.535c-0.49591,1.93739 1.56693,3.72082 3.05319,5.48168c0.36342,0.43078 -0.3179,0.64543 -1.20277,0.71722l-1.22572,-0.02295c-1.25569,-0.00148 -0.4726,-1.34118 -0.70353,-2.03324c-0.49036,-1.47515 -3.04135,-2.1587 -2.59873,-3.18679c0.65172,-1.51364 1.01218,-3.58093 0.93335,-4.89546c-0.11806,-1.95959 -1.5562,-4.01874 -0.96629,-6.20371c0.06439,-0.23907 0.46334,-0.94223 0.27608,-1.03438z" fill="#ffffff"/><path d="M231.03855,198.82191c-0.40265,-0.77088 -2.56135,-1.23312 -2.68792,-2.15944c-0.13212,-0.96814 1.04956,-2.91293 1.1158,-4.23931c0.06513,-1.2853 0.05551,-2.87111 -0.22094,-3.43845c-0.86748,-1.78121 -0.65468,-4.88843 0.10473,-5.17451c0.07624,-0.02887 0.1262,-0.02924 0.15988,-0.01258c0.18689,0.09252 -0.21206,0.79568 -0.27645,1.03475c-0.58991,2.18534 0.84823,4.24412 0.96629,6.20371c0.07883,1.31454 -0.28163,3.38182 -0.93335,4.89546c-0.44262,1.02809 2.10837,1.71164 2.59873,3.18679c0.23093,0.69206 -0.55253,2.03176 0.70353,2.03324l1.22572,0.02332c0.88487,-0.07217 1.56619,-0.28681 1.20277,-0.71722c-1.48626,-1.76049 -3.5491,-3.54429 -3.05319,-5.48168c0.41116,-1.60505 2.73862,-2.78155 3.71971,-4.535c0.62396,-1.1158 0.70316,-2.1772 1.13283,-3.32372c0.05366,-0.01073 0.14618,0.01813 0.19799,0.06032c0.01739,0.01406 0.02998,0.02961 0.03553,0.04589c0.42486,1.25569 -0.42041,3.29966 -1.11617,4.39141c-1.00552,1.57841 -3.94509,2.59836 -3.28227,4.83403c0.43781,1.47515 1.98402,2.7364 3.07724,3.97766c0.31198,0.35454 0.08105,0.9748 -0.5988,1.05548c-5.60454,0.6643 -2.90256,-0.42115 -4.07166,-2.66016z" fill="#000000"/></g></g><g><path d="M229.5127,183.41163c-0.02554,0.36416 -0.20577,0.42412 -0.20577,0.42412v0.00111c-0.14988,-0.01517 -0.37008,0.02961 -0.49628,-0.03035c-0.87192,-0.41523 -1.05918,-2.52175 -1.65279,-3.31521c-1.1739,-1.56693 -3.90364,-1.01329 -5.18894,0.21058c-2.19904,2.09356 -0.68836,4.60902 -0.3253,6.94055c0.14137,0.90818 0.34307,2.37261 -1.41705,2.87518c0.39784,0.05514 1.07176,-0.07365 1.41705,-0.26313c1.14356,-0.63062 0.1225,-2.95253 -0.17061,-4.00097c-0.36231,-1.29825 -0.83676,-2.58799 -0.09696,-3.86885c0.68984,-1.19574 2.23419,-2.32005 3.81001,-2.10318c1.77418,0.24351 2.03472,3.56501 3.5243,3.8348c-0.16765,0.06699 -0.31753,0.13101 -0.40413,0.16136c-2.63944,0.9315 -3.41254,-2.31524 -5.09346,-1.54621c-1.80453,0.8264 0.30976,4.86179 -0.02369,6.49311c-0.18393,0.90004 -0.86451,1.57434 -1.8382,1.80564c-0.93853,0.22168 -2.19608,-0.2054 -2.96215,-0.72277c1.43074,0.21095 2.5817,-0.58029 2.56579,-1.9459c-0.02924,-2.46143 -1.43999,-4.93284 -0.1917,-7.36133c2.18164,-4.24449 8.33465,-4.92137 8.74988,2.41146z" fill="url(#color-2)"/><path d="M229.9346,183.48158c0,0 -0.04219,0.55142 -0.68947,0.79938v-0.00111c-0.24426,0.15655 -0.53255,0.2994 -0.67059,0.38341c-3.37479,2.05359 -3.21454,-1.95737 -5.19819,-1.04882c-1.02957,0.47112 2.19126,6.02903 -1.10174,7.70588c-1.8667,0.95111 -4.92655,-0.56438 -5.22632,-2.45106c0.61989,1.1876 3.105,1.28456 3.08243,-0.45483c-0.04293,-3.36665 -1.70682,-5.33956 0.36416,-8.71139c1.06547,-1.73458 3.80039,-2.8959 5.93577,-2.48881c1.04401,0.1991 2.05951,0.93298 2.6609,1.73495c0.62803,0.83602 1.04475,3.61498 0.84305,4.53241zM229.51344,183.41163c-0.4156,-7.33283 -6.56861,-6.65595 -8.75025,-2.41146c-1.24829,2.42886 0.16247,4.90028 0.1917,7.36133c0.01591,1.36598 -1.13505,2.15685 -2.56579,1.9459c0.76607,0.51738 2.02362,0.94445 2.96215,0.72277c0.97369,-0.2313 1.65427,-0.90559 1.8382,-1.80564c0.33345,-1.63133 -1.78084,-5.66672 0.02369,-6.49311c1.68092,-0.76903 2.45402,2.47808 5.09346,1.54621c0.0866,-0.03035 0.23611,-0.09437 0.40413,-0.16136c-1.48922,-0.26979 -1.74975,-3.59129 -3.5243,-3.8348c-1.57582,-0.21687 -3.12017,0.90744 -3.81001,2.10318c-0.7398,1.28086 -0.26535,2.5706 0.09696,3.86885c0.29311,1.04845 1.31417,3.37072 0.17061,4.00097c-0.34529,0.18948 -1.01921,0.31827 -1.41705,0.26313c1.76012,-0.50294 1.55842,-1.96736 1.41705,-2.87518c-0.36305,-2.33153 -1.87373,-4.84698 0.3253,-6.94055c1.2853,-1.22387 4.01504,-1.77751 5.18894,-0.21058c0.59361,0.79346 0.78088,2.89997 1.65279,3.31521c0.1262,0.05995 0.34603,0.01517 0.49628,0.03035v-0.00111c0,0 0.18023,-0.05995 0.20614,-0.42412z" fill="#000000"/></g><g><g><path d="M256.43072,189.46842v0c0,0 0.86303,-1.33452 3.03542,-0.34751l-0.18837,0.25647l0.30088,0.53662c0.34603,0.43707 0.72092,0.85637 1.12024,1.25421c-0.87303,0.7905 -3.51875,0.61212 -4.3977,-0.15284c-0.00888,-0.29237 0.06291,-0.57141 0.14433,-0.84897c0,0 0.1658,-0.59842 0.18097,-0.67022c0.0074,-0.03442 -0.09141,-0.03553 -0.19577,-0.02776z" fill="#808080"/><path d="M255.99439,191.60861c-0.79938,-0.47482 -0.14026,-1.01292 -0.04145,-1.53104l0.25166,-0.58177c0,0 0.12102,-0.01924 0.23537,-0.02776c0.10473,-0.00777 0.20355,-0.00666 0.19614,0.02776c-0.01517,0.07217 -0.18097,0.67022 -0.18097,0.67022c-0.08142,0.27756 -0.15321,0.55661 -0.14433,0.84897c0.87895,0.76496 3.52504,0.94334 4.3977,0.15284c-0.39932,-0.39821 -0.77384,-0.81714 -1.12024,-1.25421l-0.30088,-0.53662l0.18837,-0.25647l0.11288,-0.15395c0,0 0.24611,0.11991 0.62174,0.52959c0.06884,0.07957 0.13582,0.15988 0.20799,0.23981c0.32234,0.35565 0.89412,0.76755 1.14023,1.14134c0.70982,1.07213 -3.32483,2.06099 -5.5642,0.73128z" fill="#000000"/></g><g><path d="M246.13981,182.93496c-0.23056,-0.30828 -0.41671,-0.62877 -0.53588,-0.86414c-0.54328,-1.07213 0.00074,-2.09097 1.05696,-2.53211c0.44114,-0.1843 0.92262,-0.2635 1.40928,-0.29126c0.29237,0.14951 1.34895,0.07365 2.06951,0.44299c2.44884,1.25347 2.64462,1.87743 5.64858,1.38781c1.04438,-0.17024 3.27968,1.17316 1.83191,2.92773c-0.12324,1.90186 1.11839,3.54133 1.53881,5.27036c0.10917,0.44891 -1.1876,0.39377 -1.99179,0.30532c-0.33271,-0.03664 -1.2061,-0.10214 -1.43037,-0.49776c0.09178,-0.61175 0.77458,-0.98146 0.88413,-1.57063c0.24426,-1.32009 -0.3649,-3.2238 -1.0329,-4.39252c-2.98398,-1.23127 -5.74333,1.13986 -9.27947,-0.3649c-0.07846,0.03442 -0.13397,0.10029 -0.16876,0.17912z" fill="#ffffff"/><path d="M259.98278,189.66937c0,0.00037 0,0.00037 -0.00037,0.00037c-0.1521,0.05736 -0.29607,0.10103 -0.44151,0.14655c-1.33267,0.3538 -2.74935,0.23056 -2.74935,0.23056l-0.00444,0.01517l-0.00703,-0.01813c-1.15059,-0.22501 -1.77788,-0.82677 -1.92665,-0.9859c-0.01998,-0.02813 -0.04589,-0.05218 -0.06402,-0.08179c0.03849,-0.53218 0.61138,-0.84194 0.866,-1.28086c0.57807,-0.99812 0.36342,-2.30932 -0.03257,-3.32409c-0.18504,-0.47149 -0.33085,-0.4985 -0.83343,-0.59472c-1.34895,-0.25943 -2.21902,-0.47963 -3.59906,-0.10621c-1.15392,0.31161 -4.35218,1.02439 -5.04757,-0.32012c-0.05699,-0.1114 -0.06069,-0.282 -0.00222,-0.41597c0.03442,-0.07846 0.08956,-0.14433 0.16839,-0.17875c3.53578,1.50476 6.29549,-0.86637 9.27947,0.3649c0.668,1.16872 1.27716,3.07243 1.0329,4.39252c-0.10954,0.58917 -0.79235,0.95889 -0.88413,1.57063c0.22427,0.39599 1.09767,0.46112 1.43037,0.49776c0.80419,0.08845 2.10096,0.14359 1.99179,-0.30532c-0.42041,-1.72903 -1.66204,-3.36813 -1.53881,-5.27036c1.44777,-1.75457 -0.78754,-3.09797 -1.83191,-2.92773c-3.00397,0.48962 -3.20011,-0.13434 -5.64858,-1.38781c-0.72055,-0.36934 -1.77714,-0.29348 -2.06951,-0.44299c-0.05292,-0.02702 -0.08401,-0.06032 -0.07994,-0.10621c0.07994,-0.96185 3.06133,0.46668 3.29337,0.58806c3.79743,1.9892 4.42842,-0.38674 6.62005,1.27198c2.40554,1.82192 -0.34492,2.57504 0.51627,5.23076c0.34344,1.05955 0.82418,1.96181 1.46405,2.82707c-0.00074,0.00074 -0.00814,0.00296 -0.00814,0.00296c0.24611,0.34714 0.10695,0.60694 0.10658,0.60768z" fill="#000000"/></g></g><g><g><path d="M243.03148,168.01394c-1.27975,-0.84823 -1.14356,-2.53174 -1.10877,-2.9429c0.0074,-0.11991 0.00925,-0.20059 -0.00074,-0.19688c-0.77162,0.27904 -3.11425,0.1843 -4.12532,-0.63284c0.21206,-0.40931 1.00626,-0.63654 1.46627,-0.70168c0.50516,-0.07106 1.5018,-0.15284 2.56542,0.59472c0.28607,0.20133 0.62063,-1.16317 1.61689,-1.93702c0.60435,-0.46964 1.75864,-0.65468 2.41405,-0.33493c1.13283,0.55216 1.43333,0.23389 2.59873,-0.10695c1.03919,-0.30347 1.50328,-1.36339 2.33301,-1.69239c1.13912,-0.45224 2.06877,1.63059 1.94886,2.42442c-0.10695,0.70908 -2.62611,1.03993 -3.31558,1.05215l-0.08327,0.07661c0.38008,0.97332 1.67204,0.80456 2.56616,0.91522c-0.26609,1.92554 -2.38445,1.83043 -3.31558,0.36601c-0.41782,0.03109 -0.83713,0.15988 -1.13283,0.44225c0.10066,0.92891 -0.09326,1.7294 -0.94889,2.30266c-0.46556,0.31124 -0.98294,0.32789 -1.48329,0.54883c0,0 -1.28937,0.29052 -1.99512,-0.17727z" fill="#ffffff"/><path d="M253.02299,163.21951c-0.41708,0.50072 -1.6243,0.41153 -2.23271,0.7324c0.56623,0.40302 1.86485,-0.31827 1.86522,0.73203c0.00074,1.5599 -1.94035,2.23567 -3.19863,1.70831c-0.26646,-0.11214 -0.52885,-0.27164 -0.79642,-0.49443c-0.19947,0.03664 -0.40265,0.12953 -0.62655,0.2783c0.09474,1.22461 -1.20055,2.79857 -2.62833,2.40739c-0.44743,-0.1225 -0.37934,-0.39229 -0.37934,-0.39229c0.50035,-0.22094 1.01773,-0.23759 1.48329,-0.54883c0.85526,-0.57326 1.04919,-1.37375 0.94889,-2.30266c0.2957,-0.28237 0.715,-0.41116 1.13283,-0.44225c0.93113,1.46442 3.04949,1.55953 3.31558,-0.36601c-0.89412,-0.11065 -2.18645,0.0581 -2.56616,-0.91522l0.08327,-0.07661c0.68947,-0.01221 3.20862,-0.34307 3.31558,-1.05215c0.11991,-0.79383 -0.81011,-2.87666 -1.94886,-2.42442c-0.82973,0.329 -1.29381,1.38892 -2.33301,1.69239c-1.16539,0.34085 -1.46553,0.65912 -2.59873,0.10695c-0.65505,-0.31975 -1.80934,-0.13471 -2.41405,0.33493c-0.99626,0.77384 -1.33082,2.13834 -1.61689,1.93702c-1.06362,-0.74757 -2.06025,-0.66578 -2.56542,-0.59472c-0.46001,0.06513 -1.25421,0.29237 -1.46627,0.70168c1.01107,0.81714 3.3537,0.91189 4.12532,0.63284c0.00999,-0.0037 0.00851,0.07698 0.00074,0.19688c-0.29422,0.12065 -0.17135,0.07994 -0.46927,0.18541c-0.13804,0.04885 -0.2783,0.09067 -0.42412,0.11436c-1.46294,0.15729 -3.02728,-0.26313 -4.16492,-1.09952c0.56068,-1.72163 3.77263,-1.52622 5.13084,-0.83861c2.19719,-4.82589 4.03391,-0.9674 5.9972,-2.19608c0.81381,-0.50886 1.33008,-1.27605 2.06581,-1.82969c1.43259,-1.07842 4.40658,2.08061 2.96511,3.8126z" fill="#000000"/></g><path d="M251.08153,160.84949c0,-0.0977 0.14531,-0.1769 0.32456,-0.1769c0.17925,0 0.32456,0.0792 0.32456,0.1769c0,0.0977 -0.14531,0.1769 -0.32456,0.1769c-0.17925,0 -0.32456,-0.0792 -0.32456,-0.1769z" fill="#000000"/><path d="M250.73625,161.92792c0,-0.17966 0.25914,-0.3253 0.57881,-0.3253c0.31967,0 0.57881,0.14564 0.57881,0.3253c0,0.17966 -0.25914,0.3253 -0.57881,0.3253c-0.31967,0 -0.57881,-0.14564 -0.57881,-0.3253z" fill="#000000"/><path d="M245.80192,162.34833c0.22131,-0.16321 0.23833,-0.43966 0.09437,-0.66319c-0.14729,-0.22982 0.22871,-0.43226 0.37674,-0.20244c0.23389,0.36305 0.04737,0.78199 -0.31124,1.04697c-0.13212,0.09696 -0.29163,-0.08364 -0.15988,-0.18134z" fill="#000000"/><path d="M245.19129,164.11252c0.34492,-0.13175 0.3464,-0.57807 0.15247,-0.8771c-0.18504,-0.28533 0.282,-0.53884 0.46705,-0.25388c0.35454,0.54735 0.21354,1.33674 -0.41671,1.57693c-0.32493,0.12398 -0.52811,-0.32234 -0.20281,-0.44595z" fill="#000000"/></g><g><path d="M239.98421,156.98212c1.37671,1.4078 2.89738,3.22306 3.96433,4.56239c-0.1151,0.36786 -0.6062,0.73832 -1.19981,0.59768c-0.84342,-1.65168 -2.04693,-3.45584 -2.76452,-5.16007z" fill="#fbb03b"/><path d="M242.40974,162.63256c-0.92743,-1.16835 -3.39996,-6.34952 -3.12721,-6.63042c0.74831,-0.08179 4.86105,4.67082 5.28405,5.4306c0.30532,0.54624 -0.86785,1.5958 -2.15685,1.19981zM242.17177,159.39359c-0.05773,-0.06736 -0.1151,-0.13397 -0.1732,-0.20133c0.01036,0.34196 -0.0903,0.68762 -0.27571,0.97739c-0.01221,0.01961 -0.02702,0.03109 -0.04219,0.04256c0.12768,0.22242 0.25499,0.4441 0.38008,0.6643c0.29422,-0.29237 0.3353,-1.03919 0.13212,-1.42408c-0.01147,-0.02146 -0.01369,-0.03886 -0.02109,-0.05884zM241.13332,158.2108c0.02406,0.27275 -0.02628,0.55068 -0.13249,0.80419c0.15173,0.27349 0.3068,0.54624 0.46297,0.81862c0.14507,-0.32049 0.13249,-0.92077 -0.03701,-1.29418c-0.0977,-0.10991 -0.1954,-0.21983 -0.29348,-0.32863zM239.98458,156.98212c0.2091,0.49628 0.46186,1.00145 0.7324,1.50883c0.01961,-0.26609 -0.0074,-0.57437 -0.08475,-0.82677c-0.21798,-0.23426 -0.43485,-0.46408 -0.64765,-0.68206zM242.55444,161.77507c0.00703,-0.00592 0.0111,-0.01295 0.01887,-0.0185c0.34862,-0.23759 0.53255,-0.97221 0.40413,-1.38522c-0.00333,-0.00999 -0.00185,-0.01665 -0.00407,-0.02628c-0.05255,-0.06328 -0.10584,-0.12731 -0.15914,-0.19096c-0.04663,0.38748 -0.245,0.75978 -0.53218,1.03808c-0.01073,0.01073 -0.02258,0.01406 -0.03331,0.02109c0.1051,0.18874 0.20651,0.376 0.30569,0.56179zM243.94855,161.54451c-0.14211,-0.17838 -0.29311,-0.36601 -0.44965,-0.55883c-0.08216,0.44373 -0.37563,0.84897 -0.76348,1.11321c-0.00259,0.00185 -0.00518,0.00185 -0.00777,0.00333c0.00666,0.01332 0.01406,0.02665 0.02109,0.03997c0.59398,0.14063 1.08471,-0.22982 1.19981,-0.59768z" fill="#000000"/></g></g></g></g></svg>